<svg xmlns="http://www.w3.org/2000/svg" xmlns:xlink="http://www.w3.org/1999/xlink" width="500" zoomAndPan="magnify" viewBox="0 0 375 374.999991" height="500" preserveAspectRatio="xMidYMid meet" version="1.0"><defs><clipPath id="d9a3ea8313"><path d="M 11.960938 38 L 22 38 L 22 62.960938 L 11.960938 62.960938 Z M 11.960938 38 " clip-rule="nonzero"/></clipPath><clipPath id="3d2f857879"><path d="M 25 29 L 36 29 L 36 62.960938 L 25 62.960938 Z M 25 29 " clip-rule="nonzero"/></clipPath><clipPath id="bcea66dc94"><path d="M 39 20 L 50 20 L 50 62.960938 L 39 62.960938 Z M 39 20 " clip-rule="nonzero"/></clipPath><clipPath id="4fc8d5b961"><path d="M 53 11.960938 L 62.960938 11.960938 L 62.960938 62.960938 L 53 62.960938 Z M 53 11.960938 " clip-rule="nonzero"/></clipPath></defs><g clip-path="url(#d9a3ea8313)"><path fill="#4e0f53" d="M 20.957031 38.816406 L 12.839844 38.816406 C 12.347656 38.816406 11.960938 39.203125 11.960938 39.695312 L 11.960938 62.148438 C 11.960938 62.640625 12.347656 63.03125 12.839844 63.03125 L 20.957031 63.03125 C 21.433594 63.03125 21.839844 62.640625 21.839844 62.148438 L 21.839844 39.695312 C 21.839844 39.203125 21.433594 38.816406 20.957031 38.816406 Z M 20.957031 38.816406 " fill-opacity="1" fill-rule="nonzero"/></g><g clip-path="url(#3d2f857879)"><path fill="#4e0f53" d="M 34.675781 29.871094 L 26.578125 29.871094 C 26.082031 29.871094 25.695312 30.257812 25.695312 30.75 L 25.695312 62.148438 C 25.695312 62.640625 26.082031 63.03125 26.578125 63.03125 L 34.675781 63.03125 C 35.171875 63.03125 35.558594 62.640625 35.558594 62.148438 L 35.558594 30.75 C 35.558594 30.257812 35.171875 29.871094 34.675781 29.871094 Z M 34.675781 29.871094 " fill-opacity="1" fill-rule="nonzero"/></g><g clip-path="url(#bcea66dc94)"><path fill="#4e0f53" d="M 48.414062 20.90625 L 40.3125 20.90625 C 39.820312 20.90625 39.433594 21.3125 39.433594 21.785156 L 39.433594 62.148438 C 39.433594 62.640625 39.820312 63.03125 40.3125 63.03125 L 48.414062 63.03125 C 48.90625 63.03125 49.292969 62.640625 49.292969 62.148438 L 49.292969 21.785156 C 49.292969 21.3125 48.90625 20.90625 48.414062 20.90625 Z M 48.414062 20.90625 " fill-opacity="1" fill-rule="nonzero"/></g><g clip-path="url(#4fc8d5b961)"><path fill="#4e0f53" d="M 62.148438 11.960938 L 54.03125 11.960938 C 53.554688 11.960938 53.152344 12.347656 53.152344 12.839844 L 53.152344 62.148438 C 53.152344 62.640625 53.554688 63.03125 54.03125 63.03125 L 62.148438 63.03125 C 62.640625 63.03125 63.03125 62.640625 63.03125 62.148438 L 63.03125 12.839844 C 63.03125 12.347656 62.640625 11.960938 62.148438 11.960938 Z M 62.148438 11.960938 " fill-opacity="1" fill-rule="nonzero"/></g></svg>