<svg xmlns="http://www.w3.org/2000/svg" xmlns:xlink="http://www.w3.org/1999/xlink" width="500" zoomAndPan="magnify" viewBox="0 0 375 374.999991" height="500" preserveAspectRatio="xMidYMid meet" version="1.0"><defs><clipPath id="fb43bbe008"><path d="M 20 55 L 29 55 L 29 57.75 L 20 57.75 Z M 20 55 " clip-rule="nonzero"/></clipPath><clipPath id="87ec9e761a"><path d="M 41.554688 22.921875 L 48.75 22.921875 L 48.75 26.292969 L 41.554688 26.292969 Z M 41.554688 22.921875 " clip-rule="nonzero"/></clipPath></defs><path fill="#4e0f53" d="M 37.792969 13.648438 L 41.921875 9.515625 C 42.558594 8.878906 42.558594 7.839844 41.921875 7.203125 C 41.28125 6.5625 40.246094 6.5625 39.605469 7.203125 L 35.53125 11.273438 C 36.355469 11.988281 37.105469 12.785156 37.792969 13.648438 " fill-opacity="1" fill-rule="nonzero"/><path fill="#4e0f53" d="M 24.554688 7.105469 C 24.570312 7.105469 24.585938 7.105469 24.601562 7.105469 C 25.140625 7.105469 25.667969 7.140625 26.195312 7.195312 L 26.195312 1.644531 C 26.195312 0.742188 25.460938 0.0117188 24.554688 0.0117188 C 23.652344 0.0117188 22.921875 0.742188 22.921875 1.644531 L 22.921875 7.195312 C 23.445312 7.140625 23.972656 7.105469 24.511719 7.105469 C 24.523438 7.105469 24.539062 7.105469 24.554688 7.105469 " fill-opacity="1" fill-rule="nonzero"/><path fill="#4e0f53" d="M 11.320312 13.648438 C 12.003906 12.789062 12.753906 11.988281 13.574219 11.273438 L 9.503906 7.203125 C 8.867188 6.5625 7.828125 6.5625 7.191406 7.203125 C 6.550781 7.839844 6.550781 8.878906 7.191406 9.515625 L 11.320312 13.648438 " fill-opacity="1" fill-rule="nonzero"/><path fill="#4e0f53" d="M 7.296875 25.257812 C 7.296875 24.46875 7.363281 23.695312 7.457031 22.933594 L 1.636719 22.933594 C 0.730469 22.933594 0 23.664062 0 24.566406 C 0 25.472656 0.730469 26.207031 1.636719 26.207031 L 7.320312 26.207031 C 7.308594 25.894531 7.296875 25.582031 7.296875 25.257812 " fill-opacity="1" fill-rule="nonzero"/><path fill="#4e0f53" d="M 7.191406 39.617188 C 6.550781 40.253906 6.550781 41.292969 7.191406 41.933594 C 7.828125 42.574219 8.867188 42.574219 9.503906 41.933594 L 12.503906 38.933594 C 11.828125 38.171875 11.121094 37.328125 10.460938 36.351562 L 7.191406 39.617188 " fill-opacity="1" fill-rule="nonzero"/><g clip-path="url(#fb43bbe008)"><path fill="#4e0f53" d="M 25.289062 55.8125 L 20.992188 55.8125 C 20.992188 55.859375 20.984375 55.902344 20.984375 55.953125 C 20.984375 56.816406 22.308594 57.515625 23.535156 57.515625 L 25.574219 57.515625 C 26.804688 57.515625 28.125 56.816406 28.125 55.953125 C 28.125 55.902344 28.121094 55.859375 28.121094 55.8125 L 25.289062 55.8125 " fill-opacity="1" fill-rule="nonzero"/></g><path fill="#4e0f53" d="M 28.726562 51.835938 L 20.386719 51.835938 C 19.523438 51.835938 18.824219 52.535156 18.824219 53.394531 C 18.824219 54.257812 19.523438 54.960938 20.386719 54.960938 L 28.726562 54.960938 C 29.585938 54.960938 30.285156 54.257812 30.285156 53.394531 C 30.285156 52.535156 29.585938 51.835938 28.726562 51.835938 " fill-opacity="1" fill-rule="nonzero"/><path fill="#4e0f53" d="M 28.726562 47.890625 L 20.386719 47.890625 C 19.523438 47.890625 18.824219 48.589844 18.824219 49.453125 C 18.824219 50.316406 19.523438 51.015625 20.386719 51.015625 L 28.726562 51.015625 C 29.585938 51.015625 30.285156 50.316406 30.285156 49.453125 C 30.285156 48.589844 29.585938 47.890625 28.726562 47.890625 " fill-opacity="1" fill-rule="nonzero"/><path fill="#4e0f53" d="M 23.714844 16.71875 C 21.824219 16.792969 20.535156 17.308594 19.550781 18.007812 C 18.570312 18.710938 17.882812 19.648438 17.394531 20.652344 C 16.40625 22.644531 16.324219 24.855469 16.328125 25.003906 L 16.328125 25.007812 C 16.328125 25.9375 15.570312 26.699219 14.640625 26.699219 C 13.707031 26.699219 12.949219 25.9375 12.949219 25.007812 C 12.949219 24.933594 12.953125 24.074219 13.175781 22.835938 C 13.402344 21.597656 13.847656 19.96875 14.789062 18.363281 C 15.414062 17.296875 16.273438 16.238281 17.429688 15.371094 C 18.972656 14.210938 21.042969 13.425781 23.597656 13.34375 C 24.53125 13.3125 25.3125 14.039062 25.347656 14.972656 C 25.378906 15.90625 24.652344 16.6875 23.714844 16.71875 Z M 39.539062 25.257812 C 39.542969 21.863281 38.410156 18.722656 36.507812 16.210938 C 34.835938 14 32.566406 12.269531 29.933594 11.253906 L 29.949219 11.179688 L 28.824219 10.851562 C 27.953125 10.597656 27.054688 10.421875 26.136719 10.328125 L 26.003906 10.3125 L 25.996094 10.3125 C 25.546875 10.269531 25.078125 10.238281 24.59375 10.238281 L 24.519531 10.238281 C 24.03125 10.238281 23.5625 10.269531 23.113281 10.3125 L 23.109375 10.3125 L 22.972656 10.328125 C 22.054688 10.421875 21.15625 10.597656 20.285156 10.851562 L 19.199219 11.167969 L 19.210938 11.242188 C 16.566406 12.253906 14.285156 13.992188 12.605469 16.210938 C 10.699219 18.722656 9.566406 21.863281 9.570312 25.257812 C 9.566406 27.691406 9.988281 29.695312 10.644531 31.355469 C 11.625 33.839844 13.128906 35.519531 14.332031 36.789062 C 14.9375 37.425781 15.464844 37.964844 15.828125 38.425781 C 16.195312 38.894531 16.371094 39.253906 16.425781 39.542969 C 16.6875 40.929688 16.714844 42.683594 16.714844 43.132812 L 16.714844 43.257812 C 16.714844 45.269531 18.34375 46.894531 20.351562 46.894531 L 28.761719 46.894531 C 30.769531 46.894531 32.394531 45.265625 32.398438 43.257812 L 32.398438 43.238281 L 32.394531 43.214844 L 32.394531 43.132812 C 32.394531 42.695312 32.421875 40.933594 32.6875 39.542969 C 32.722656 39.347656 32.808594 39.128906 32.976562 38.859375 C 33.265625 38.390625 33.808594 37.800781 34.480469 37.101562 C 35.488281 36.039062 36.773438 34.703125 37.792969 32.804688 C 38.816406 30.90625 39.546875 28.457031 39.539062 25.257812 " fill-opacity="1" fill-rule="nonzero"/><path fill="#4e0f53" d="M 38.65625 36.351562 C 37.988281 37.328125 37.285156 38.171875 36.605469 38.933594 L 39.605469 41.933594 C 40.246094 42.574219 41.28125 42.574219 41.921875 41.933594 C 42.558594 41.292969 42.558594 40.253906 41.921875 39.617188 L 38.65625 36.351562 " fill-opacity="1" fill-rule="nonzero"/><g clip-path="url(#87ec9e761a)"><path fill="#4e0f53" d="M 47.476562 22.933594 L 41.65625 22.933594 C 41.75 23.695312 41.8125 24.46875 41.8125 25.257812 C 41.8125 25.582031 41.804688 25.894531 41.792969 26.207031 L 47.476562 26.207031 C 48.378906 26.207031 49.113281 25.472656 49.113281 24.566406 C 49.113281 23.664062 48.378906 22.933594 47.476562 22.933594 " fill-opacity="1" fill-rule="nonzero"/></g></svg>