<?xml version="1.0" encoding="utf-8"?>
<!-- Generator: Adobe Illustrator 15.0.0, SVG Export Plug-In . SVG Version: 6.00 Build 0)  -->
<!DOCTYPE svg PUBLIC "-//W3C//DTD SVG 1.1//EN" "http://www.w3.org/Graphics/SVG/1.1/DTD/svg11.dtd">
<svg version="1.1" id="Layer_1" xmlns="http://www.w3.org/2000/svg" xmlns:xlink="http://www.w3.org/1999/xlink" x="0px" y="0px"
	 width="137.5px" height="57.877px" viewBox="16.55 0 137.5 57.877" enable-background="new 16.55 0 137.5 57.877"
	 xml:space="preserve">
<g>
	<defs>
		<circle id="SVGID_1_" cx="44.942" cy="28.843" r="28.042"/>
	</defs>
	<clipPath id="SVGID_2_">
		<use xlink:href="#SVGID_1_"  overflow="visible"/>
	</clipPath>
	<g clip-path="url(#SVGID_2_)">
		<defs>
			<rect id="SVGID_3_" x="-64.36" y="-3.275" width="619.124" height="1261.465"/>
		</defs>
		<clipPath id="SVGID_4_">
			<use xlink:href="#SVGID_3_"  overflow="visible"/>
		</clipPath>
		<rect x="14.75" y="-1.349" clip-path="url(#SVGID_4_)" fill="#2B366C" width="60.384" height="60.385"/>
	</g>
</g>
<g>
	<defs>
		<path id="SVGID_5_" d="M22.903,17.362l0.261,0.009l0.4,0.005l0.031,0l0.631,0.015l0.277,0.008l0.231,0.01l0.185-0.004l0.261,0.009
			l0.231,0.009l0.016,0l0.123-0.002l0.185,0.01l0.322,0.008l0.047-0.001l1.153,0.018l0.047,0.013l0.814,0.011l0.309,0.007
			l0.415,0.005l0.231,0.009l0.123-0.003l0.031-0.001l1.2,0.032l0.154,0.012l0.754,0.012l0.231,0.01l0.384,0.005l0.047,0.015
			l0.646,0.015l0.753,0.012l0.093-0.002l0.169,0.011l0.123-0.003l0.169,0.011l0.046-0.001l0.569,0.017l0.4,0.005l0.154,0.011
			l0.445,0.005l0.078,0.013h0.015l0.015,0l1.031,0.021l0.769,0.012l0.261-0.006l0.186,0.011l0.277,0.008l0.138-0.003l0.016-0.001
			l0.8,0.026l0.446,0.004l0.338,0.007l0.354,0.007l0.384,0.006l0.031-0.001l0.938,0.007l0.016,0l0.231,0.01l0.292,0.008l0.138-0.004
			l0.046-0.001l0.308,0.007l0.246-0.006l0.323,0.007l0.385,0.006l0.03-0.001l0.231-0.005l0.2,0.01l0.062-0.001l0.015,0l0.138-0.004
			l0.692,0.014l0.185-0.005l0.077-0.002h0.031H45.3l0.016-0.001l0.262,0.008l0.369,0.007l0.031-0.001l0.046-0.001h0.016l0.016-0.001
			l0.23-0.005l0.124,0.012l0.107-0.003l0.23-0.005l0.154,0.012l0.416,0.005h0.015l0.231-0.006l0.031-0.001l0.03,0l0.169,0.011
			l0.093-0.002l0.185,0.011l0.184-0.005l0.046-0.001l0.246-0.006l0.059-0.094l0.119-0.172l0.044-0.078l0.103-0.171l0.149-0.189
			l0-0.015l0.136-0.111l0.152-0.05l0.123-0.019l0.093,0.013l0.108,0.028l0.109,0.028l0.046,0.015l0.031,0.014l0.17,0.042
			l-0.021-0.246l-0.016-0.03l-0.021-0.215l-0.027-0.445l0.015-0.032l0.03-0.031l0.045-0.062l0.06-0.079l0.074-0.094l0.015-0.017
			l0.015-0.015l0.197-0.127l0.031-0.001l0.197-0.097l0.217,0.056l0.186,0.042l0.14,0.042l0.17,0.042l0.17,0.042l0.016,0.016
			l0.111-0.48l0.071-0.202l0.044-0.078l0.12-0.141l0.044-0.047l0.352-0.085l0.092-0.018l0.092-0.033l0.198-0.037l0.107-0.033
			l0.045-0.031l0.091-0.048l0.076-0.048l0.228-0.145l0.015-0.015l0.03-0.017l0.169-0.02l0.153-0.003l0.217,0.056l0.032,0.03
			l0.141,0.104l0.313,0.223l0.016,0.015l0.152-0.081l0.075-0.063l0.076-0.048l0.015,0l0.031-0.017l0.062-0.001l-0.006,0.369
			l0.034,0.138l0.02,0.153l0.018,0.123l0.035,0.152l0.019,0.123l0.09,0.521l0.152,0.55l0.017,0.061l0.13,0.274l0.162,0.349
			l0.034,0.107l-0.105,0.126l0.002,0.061v0.015l0.188,0.134l0.201,0.025l0.062,0.029l0.189,0.211l0.018,0.107l0.031,0.015
			l0.496,0.157l0.06-0.017l0.031-0.016l-0.003-0.139l0.12-0.141l0.104-0.125l0.241-0.222l0.061-0.016l0.137-0.05l0.125,0.074
			l-0.025,0.215l-0.012,0.154l0,0.016l0,0.015l0.018,0.092l0.016,0l0.015,0.015l0.078,0.028l0.092-0.017l0.107-0.018l0.03-0.016
			l0.016,0l0.066,0.198l0.004,0.154l-0.028,0.093l-0.046,0.001l-0.107,0.002l-0.167,0.112v0.016l0,0.015l-0.015,0.016l-0.071,0.202
			l-0.044,0.109l-0.073,0.155l-0.238,0.329l-0.137,0.034l-0.032-0.014l-0.001-0.062l-0.017-0.077l-0.017-0.046l-0.032-0.045h-0.031
			l-0.015,0l-0.046,0.002l-0.03,0.031l-0.029,0.077l-0.045,0.048l-0.135,0.157l-0.244,0.067l-0.152,0.049l-0.11-0.089l-0.259,0.114
			l-0.046,0.017l-0.198,0.066l-0.229,0.067l-0.122,0.034l-0.151,0.126l-0.106,0.064l-0.322,0.023l-0.123,0.034l-0.03,0.016
			l-0.122,0.033l-0.016,0.001l-0.015,0.016l0,0.046l0,0.031l0.016,0.014l0.069,0.291v0.016l0.093,0.029l0.03-0.016l0.093,0.012
			l0.108,0.013l0.032,0.061l0.048,0.091l0.065,0.137l-0.056,0.231l-0.076,0.049l-0.079-0.06l-0.122,0.019l-0.046,0.032l-0.121,0.079
			l-0.12,0.096l-0.074,0.156l-0.015,0l-0.015,0.046l0,0.015l0.017,0.03l-0.091,0.079l-0.109-0.058l-0.078-0.044H53.67l-0.107-0.013
			l-0.061,0.017l-0.075,0.095l-0.03,0.016l-0.06,0.063l0,0.015l0.021,0.215l0.019,0.123l0.064,0.106l0.031,0.014l0.17,0.042
			l0.063,0.045l0.094,0.09l-0.044,0.062l-0.062,0.001l-0.169-0.011l-0.185-0.011l-0.05-0.168l-0.05-0.152l-0.007-0.276l-0.047-0.06
			l-0.015,0.016l-0.15,0.157l0.001,0.046l0.001,0.046l-0.104,0.11l-0.18,0.204l-0.015,0.016l-0.029,0.094l-0.015,0.016l-0.042,0.17
			l0.032,0.076l0.016,0.015l0.03-0.001l0.018,0.091l0.016,0.015l0.033,0.076l0.062,0.014l0.047,0.014l0.031,0.03l-0.015,0.016
			l-0.015,0.031l0.001,0.061l0.001,0.015l0.001,0.062l0.032,0.045l0.032,0.061l0.016,0.046l0.081,0.136l0.113,0.197l0.002,0.092
			l-0.139-0.042l-0.126-0.121l-0.032-0.03l-0.062-0.014l-0.031,0.016l-0.213,0.067l-0.105,0.094l-0.013,0.078l-0.071,0.248
			l-0.014,0.047L52.4,24.44l0.111,0.151l0.048,0.077l-0.013,0.092l-0.028,0.138l-0.015,0.032l0.017,0.046l0,0.015l0,0.03
			l0.032,0.046l0.048,0.076l0.048,0.074l0.063,0.045h0.015l0.016,0.015l0.153-0.003l0.123-0.019l0.138-0.034l0.106-0.048l0.048,0.06
			l0.079,0.059h0.015l0.031,0.031l0.17,0.011l0.152-0.05l0.059-0.109l0.132-0.235l-0.001-0.046V24.88l-0.002-0.078l0-0.016
			l-0.016-0.044L53.68,24.64l-0.032-0.062l0.137-0.034l0.322-0.038l0.017,0.076l0.002,0.078l0.031,0.045l0.032,0.06l0.016,0.031
			l0.048,0.091l0.017,0.031l0.047,0.061l0.08,0.105l0.063,0.061l0.079,0.074l0.261-0.007l0.093,0.03l0.17,0.042l0.265,0.132
			l0.047,0.029l0.093,0.029l0.14,0.041l0.079,0.092l0.145,0.257l0.08,0.09l0.016,0.031l0.032,0.03l0.125,0.089l0.016,0.016
			l0.063,0.061l0.109,0.042l0.018,0.123l0.038,0.275l0,0.016l0.069,0.274l0.015,0.016l0.094,0.074l0.29,0.532l0.08,0.105
			l0.223,0.318l0.047,0.045l0.268,0.285l0.034,0.121l-0.075,0.064l-0.045,0.032l0.001,0.06l-0.013,0.078l0.084,0.307l-0.013,0.092
			l-0.077,0.002h-0.016l-0.227,0.159l-0.025,0.217v0.015l0.001,0.016l0.001,0.031l0.065,0.167l-0.044,0.078l-0.106,0.049
			l-0.111-0.135l-0.123,0.002l-0.213,0.112l0.018,0.077l0.017,0.062l0.016,0.015l0.143,0.196l0.079,0.074l0.268,0.239l0.11,0.106
			l0.031,0.029l0.078,0.014l0.077,0.013l0.029-0.046h0.016l0.079,0.06l0.11,0.104l0.031,0.016l0.111,0.136l0.093,0.044l0.107-0.019
			l0.135-0.127l0.184-0.035l0.062,0.044l0.267,0.21l0.062,0.06l0.031,0.03l0.049,0.121l0.033,0.092l0.002,0.092l0.001,0.031
			l0.016,0.046l0.16,0.257l0.032,0.045l0.036,0.2l0.071,0.352l-0.115,0.325l0,0.017l-0.089,0.14l-0.012,0.124l0.035,0.152
			l0.063,0.091l0.064,0.106l0.174,0.195l0.032,0.03l0.282,0.254l0.033,0.045l0.031,0.016l0.109,0.074l0.016-0.001l0.094,0.075
			l0.015,0.015l0.047,0.029l0.31,0.1l0.264,0.103l0.217,0.07l0.385,0.052l0.032,0.015l0.077,0.013l0.092-0.001l0.631,0.015
			l0.385,0.021l0.031,0.015l0.171,0.103l0.016,0.016l0.017,0.03l0.016,0.046l0.126,0.136l0.031-0.002l0.031-0.001l0.015-0.03
			l0.074-0.094l0.06-0.063l0.06-0.063l0.075-0.094l0.015-0.017l0.135-0.095l0.045-0.032l0.061-0.048l0.349-0.177l0.092,0.013
			l0.016-0.001l0.077-0.017l0.213-0.083l0.229-0.082l0.169,0.012l0.077-0.003h0.015l0.092-0.032l0.076-0.033l0.091-0.049
			l0.045-0.016l0.03-0.017l0.123-0.034l0.061-0.017l0.183-0.066h0.015h0.016l0.015-0.001l0.046-0.031l0.167-0.097l0.061-0.017
			l0.137-0.081l0.106-0.064l0.015-0.015l0.015-0.017l0.149-0.188l0.015-0.017l0.059-0.14l-0.003-0.123l-0.026-0.414l-0.037-0.229
			l-0.021-0.215l-0.036-0.215l0.044-0.078l0.074-0.109l-0.047-0.061l-0.124-0.012l-0.157-0.119l-0.018-0.092l-0.003-0.139
			l-0.083-0.274l0-0.031l-0.185-0.011l-0.123,0.049l-0.146,0.28l0.005,0.216l0.018,0.076l0.004,0.14v0.015l0.019,0.138l-0.015,0.031
			l-0.032-0.015l-0.048-0.091l-0.038-0.292l-0.032-0.676l-0.04-0.338l-0.042-0.49l-0.033-0.107l-0.07-0.321l-0.001-0.029
			l-0.082-0.229l-0.096-0.136l-0.173-0.182l-0.204-0.131l-0.311-0.163l-0.016-0.015l-0.092,0.003l-0.199,0.051l-0.091,0.048
			l-0.015,0.016l-0.09,0.096l-0.015,0.016l-0.044,0.093l-0.043,0.11l-0.013,0.061l0,0.03l0.034,0.106l0.094,0.105l0.001,0.031H63.36
			l-0.078-0.043l-0.157-0.135l-0.145-0.258l-0.205-0.21l-0.078-0.044l-0.061,0.002l-0.018-0.062l0.089-0.155l0.15-0.112l0.245-0.067
			l0.23-0.021l0.385,0.053l0.078,0.029l0.511,0.14l0.451,0.22l0.329,0.238l0.079,0.074l0.253,0.286l0.016,0.015l0,0.016l0.16,0.258
			l0.144,0.211l0.209,0.396l0.162,0.304l0.032,0.091l0.214,0.564l0.183,0.549l0.101,0.366l0.083,0.244l0.138,0.611l0,0.016
			l0.093,0.644l0,0.031l0.059,0.521l0.021,0.246l0.002,0.076l0.029,0.554l-0.04,0.247l-0.012,0.122l-0.116,0.296l-0.028,0.093
			l-0.03,0.063l-0.029,0.046l-0.015,0.031l-0.015,0.015l-0.061,0.018l-0.016,0.001l-0.059,0.108l-0.059,0.109l-0.098,0.418
			l-0.067,0.386l-0.05,0.463l0,0.016l0,0.016l-0.119,0.188l-0.091,0.032l-0.092-0.013l-0.047-0.045l-0.033-0.077l0.029-0.046
			l0.031-0.001l0.031-0.001l0.104-0.172l0.085-0.264l0.025-0.215l0.053-0.34l0.042-0.155l0-0.016l0.028-0.108l0.014-0.046
			l0.029-0.093l0.042-0.155v-0.016l-0.003-0.092l-0.034-0.122l-0.079-0.061l-0.203-0.163l-0.062-0.029l-0.093-0.045l-0.077,0.003
			l-0.015,0.001l-0.198,0.081l-0.108,0.019l-0.229,0.036l-0.123,0.018l-0.291,0.039l-0.031,0.001l-0.381,0.132l-0.045,0.032
			l-0.123,0.033l-0.122,0.05l-0.123,0.003l-0.107,0.002l-0.015,0.001l-0.428,0.119l-0.03,0.016l-0.334,0.146l-0.198,0.097
			l-0.137,0.065l-0.135,0.142l0.017,0.046l-0.059,0.125l-0.076,0.031l-0.031-0.029l-0.034-0.122l0.012-0.14l-0.032-0.029
			l-0.049-0.091l-0.093-0.045l-0.123,0.005l-0.198,0.05L61.902,36.2l-0.109-0.06l-0.032-0.014h-0.016l-0.061-0.014l-0.168,0.034
			l-0.122,0.064l-0.059,0.078l0,0.047l0,0.016l-0.058,0.139l-0.122,0.08l-0.274,0.1l-0.016,0.001l-0.062-0.014l-0.031,0.001h-0.031
			h-0.016l-0.275,0.037l-0.062,0.002l-0.086,0.248l-0.044,0.062l-0.029,0.062l-0.104,0.172l0,0.03l-0.03,0.032l-0.015,0.016
			l-0.015,0.016l-0.074,0.109l-0.015,0.017l-0.075,0.078l-0.105,0.079l-0.016,0.001l0,0.015l-0.092,0.033l-0.092,0.018l-0.291,0.053
			l-0.077,0.003l-0.046,0.001l-0.215,0.021l-0.153,0.005h-0.016l-0.138,0.019l-0.046,0.017l-0.092,0.018l-0.092,0.018h-0.015
			l-0.061,0.001l-0.03,0.018l-0.138,0.019l-0.062,0.017l-0.045,0.017L58.07,37.91h-0.031l-0.061,0.017l-0.138,0.05l-0.104,0.095
			l-0.015,0.017h-0.016l-0.014,0.031l-0.014,0.046l-0.089,0.156l-0.075,0.047l-0.06,0.05l-0.077,0.016L57.3,38.451l-0.378,0.287
			l-0.379,0.209l-0.3,0.3l0.017,0.061l-0.06,0.095l-0.377,0.27l-0.369,0.024l-0.229,0.067l-0.18,0.189l-0.105,0.11l-0.121,0.064
			l-0.307,0.022l-0.168,0.02l-0.336,0.102l-0.121,0.079l-0.138,0.034l-0.046-0.029l0.013-0.077l0.285-0.284l0.062,0.015l0.063,0.09
			l0.093,0.013l0.076-0.032l0.304-0.114l0.361-0.316l0.35-0.133l0.352-0.101l0.178-0.251l0.168-0.05l0.27-0.269l0.104-0.157
			l0.65-0.461l0.106-0.063l0.075-0.05l0.182-0.143l0.03-0.016l0.045-0.031l0.015-0.001l0.015-0.016l0.03-0.047l0.029-0.077
			l-0.019-0.138l0.012-0.124l0.074-0.095l0.076-0.047l0-0.031l0.015-0.047l0-0.016l-0.018-0.091l-0.001-0.016l-0.066-0.168
			L57.6,36.952l-0.05-0.137l-0.001-0.03l-0.001-0.062l0.074-0.124l0.059-0.095l0.015-0.031l0.015-0.015l-0.065-0.138l-0.015-0.015
			h-0.016l-0.079-0.074l0.014-0.094l0-0.015l0.075-0.048l0.061-0.048H57.7l0.013-0.093l-0.017-0.062l-0.083-0.259l-0.033-0.091
			l-0.032-0.046l-0.169-0.012l0.21-0.221l0.259-0.099l0.015-0.046l-0.001-0.016l0.013-0.093l-0.048-0.091l-0.047-0.03l-0.17-0.057
			L57.577,34.8l-0.076,0.063l-0.076,0.001l-0.188-0.103l-0.124-0.042h-0.031l-0.093-0.028l-0.248-0.07l-0.124-0.059l-0.016-0.031
			l-0.076,0.048l-0.03,0.017l-0.027,0.14l0.001,0.03l0.112,0.183l0.054,0.32l-0.027,0.171l-0.124-0.059l-0.188-0.134l-0.016-0.015
			l-0.107,0.032l-0.03,0.017l-0.015,0.016l0,0.015v0.016l-0.014,0.063l-0.056,0.201v0.015l0.004,0.153l0.049,0.107l0.018,0.122
			l-0.102,0.232l-0.046,0.002l-0.063-0.061l-0.033-0.075l0-0.031l-0.031,0.001l-0.139-0.027l-0.17-0.042l-0.092-0.013l-0.046,0.016
			l-0.016,0.001l-0.029,0.048l0.003,0.122l0.156,0.088l0.033,0.076l0.032,0.076l-0.014,0.047l-0.015,0.001l-0.106,0.078
			l-0.337,0.024l-0.11-0.074l-0.106,0.032l-0.029,0.049h-0.016l0.018,0.076l0.018,0.106l0.055,0.354l0,0.015l-0.043,0.108
			l-0.046-0.015l-0.033-0.075l-0.016-0.03l-0.018-0.076l-0.099-0.274l0-0.016l0-0.015l-0.001-0.062l-0.002-0.061l-0.017-0.047
			l-0.047-0.045l-0.062-0.028l-0.062-0.015l-0.093-0.027l-0.075,0.062l-0.12,0.096h-0.016l-0.105,0.08l0.031,0.029l0.017,0.031
			l0.047,0.045l0.017,0.03l0.016,0.03l0.017,0.061l0.052,0.229l-0.015,0.017L54.144,37.1l-0.017-0.061l-0.065-0.152l-0.016-0.016
			l-0.016-0.015l-0.016-0.031l-0.046,0.002l-0.03,0.001l-0.016,0.001l-0.045,0.031v0.015l0.004,0.139l0.033,0.093v0.015l0.001,0.015
			l0,0.016l-0.042,0.156l-0.089,0.108l-0.048-0.06H53.69h-0.016l-0.03,0.033l0.001,0.015l0.017,0.076v0.016h0.016l0.126,0.135
			l0.088,0.443l-0.138,0.004l-0.472,0.181l-0.015,0.017l-0.042,0.17l-0.258,0.159l-0.214,0.067l-0.06,0.048l-0.15,0.126l-0.31-0.114
			l-0.14-0.013l-0.216-0.04l-0.456,0.227l-0.041-0.43l-0.077-0.599l-0.018-0.122l-0.059-0.521l0-0.03l-0.081-0.137l-0.016-0.015
			l-0.016-0.015l-0.016-0.015l-0.001-0.047l-0.019-0.153l0.013-0.093l0-0.046l0.06-0.078l0.009-0.231l0.008-0.308l0-0.016
			l-0.016-0.015h-0.015l-0.139-0.026l-0.109-0.029l-0.108-0.027l-0.185-0.026l0-0.015l-0.001-0.047l-0.062-0.014l-0.047-0.014
			l-0.093-0.028v0.015l-0.031-0.015h-0.015H50.33l-0.08-0.119l-0.096-0.152l-0.192-0.303l-0.031-0.046l-0.016-0.015l-0.144-0.212
			l-0.127-0.182l-0.032-0.061l-0.063-0.074l-0.032-0.062l-0.095-0.12l-0.297-0.162l-0.016,0.001l-0.125-0.074l-0.046-0.015
			l-0.265-0.147l-0.141-0.073l-0.016-0.029l-0.002-0.078l-0.016-0.03l0-0.015l-0.017-0.062l-0.032-0.029l-0.031,0.001l-0.047-0.03
			l-0.016-0.03l-0.001-0.046l0.014-0.062l-0.002-0.046l0.015-0.031l-0.016-0.015l-0.099-0.244l0.028-0.077l0.015-0.03l0.045-0.049
			l0.03-0.031l0.03-0.031l-0.08-0.121l-0.016-0.015l0-0.015v-0.017l0.057-0.17l0.027-0.124l0.016-0.001l0-0.015l-0.033-0.107
			l-0.017-0.075l-0.017-0.046l-0.033-0.107l0.012-0.154l-0.001-0.046V32l0.013-0.077l-0.015,0.001l-0.076,0.017h-0.016l-0.031,0.001
			l-0.045,0.018l-0.031,0.001l-0.107,0.018H47.99l-0.077,0.018l-0.031,0.001l-0.046,0.017l-0.061,0.018l-0.005-0.186l-0.004-0.184
			l0-0.016l0-0.016v-0.016l-0.003-0.107l-0.003-0.123l-0.008-0.322l-0.002-0.077l-0.005-0.215l0-0.031l-0.007-0.291l0-0.031
			l-0.005-0.199l-0.002-0.062l-0.008-0.338l-0.538,0.014l-0.476,0.027l-0.322,0.008l-0.046,0.002l-0.031,0.016h-0.031l-0.046,0.001
			l-0.046,0.002H46.17h-0.016l-0.015,0.002l-0.123,0.018l-0.138,0.019l-0.046,0.002h-0.031l-0.015,0.001l-0.092,0.001l-0.23,0.022
			l-0.077,0.001l-0.046,0.001l-0.184,0.005l-0.123,0.004l-0.061,0.016l-0.046,0.002l-0.153,0.003l-0.738,0.034l-0.214,0.021
			l-0.031,0.001l-0.583,0.03l-0.4,0.025l-0.138,0.003l-0.429,0.042l-0.038-0.276l-0.046,0.001l-0.446-0.004l-0.031,0.001
			l-0.062,0.001l-0.185,0.005l-0.03,0.001l-0.062,0.002h-0.076l-0.062,0.003l-0.077,0.002l-0.107,0.003l-0.139-0.013h-0.016
			l-0.2,0.005l-0.031,0.001l-0.415-0.005l-0.139-0.011l-0.323-0.008l-0.077,0.002h-0.046l-0.184,0.006l-0.2,0.005l-0.123,0.002
			l-0.369-0.006l-0.062,0.002l-0.415-0.005l-0.031-0.015l-0.446-0.005l-0.092,0.003l-0.108-0.012h-0.63h-0.061h-0.016L36.42,29.82
			l-0.107,0.003l-0.277,0.007l-0.246,0.007l-0.169,0.003l-0.2-0.01l-0.062,0.001l-0.2,0.006l-0.4-0.006l-0.4-0.006l-0.138,0.004
			l-0.431-0.005l-0.123,0.004l-0.092,0.002H33.56l-0.015,0.001h-0.031l-0.092,0.002l-0.139-0.011l-0.385,0.009l-0.045,0.002
			l-0.123,0.003h-0.016l-0.031,0.001l-0.046,0.002h-0.03h-0.016l-0.276,0.038l-0.107,0.018l-0.153,0.019l-0.03,0.017l-0.091,0.08
			l-0.092,0.001l-0.015,0.001l-0.215,0.006l-0.019-0.107l-0.123-0.013l-0.338-0.007l-0.385-0.037l-0.186-0.025l-0.077-0.014
			l-0.046,0.001l-0.015,0.001h-0.016h-0.016l-0.168,0.005l-0.031,0.001l-0.061,0.001l-0.416,0.01l-0.061,0.002l-0.03,0.047
			l0.062,0.03l0.017,0.029l-0.03,0.078l-0.044,0.078l0,0.016l-0.046-0.03l-0.016,0.016l0.001,0.03l0,0.015l0.016,0.016l0.016,0.016
			l-0.014,0.047l-0.03,0.031l0.001,0.047l-0.045,0.046l0.001,0.077l-0.046,0.001l-0.061,0.018l-0.123,0.018l-0.138,0.02
			l-0.292,0.038l0.029-0.678l-0.277-0.009l-0.015,0.001l-0.138,0.003l-0.216-0.011l-0.799,0.006l-0.4-0.006l-0.323-0.007
			l-0.077,0.002l-0.2,0.005l-0.108-0.014l-0.584-0.001l-0.985-0.037l-0.584-0.016l-0.755-0.027l-0.015,0.001l-0.03,0.001h-0.016
			l-0.77-0.042h-0.016l-0.03,0.001l-0.384-0.007l-0.031,0.001l-0.169-0.011l-0.431-0.006l-0.693-0.028l-0.031,0.001l-0.061,0.002
			l-0.046,0.001l-0.661,0.017l-0.124-0.013l-0.085-0.351l-0.069-0.291l0.141-0.526l0.029-0.079l0.154-0.602l0.099-0.342l0.212-0.758
			l0.21-0.822l0.155-0.571l0.225-0.821l0.028-0.093l0.014-0.062l0.126-0.479l0.126-0.48l0.099-0.341l0.014-0.078l0.38-1.424
			l0.141-0.511l0.381-1.378l0.069-0.278l0.338-1.254l0.085-0.294l0.015-0.047L22.903,17.362z M57.615,39.396l0.061-0.047
			l0.212-0.128l0.393-0.272l0.062,0.014l0.034,0.169l0.139,0.027l0.155,0.027l0.091-0.049l0-0.016l0,0.016l0.062,0.029l0.065,0.152
			l0.048,0.075l0.016,0.045l0,0.016l0.02,0.154l-0.025,0.231l0.034,0.122l0.064,0.121l0.016,0.015l0.126,0.105l0.124,0.073
			l0.154,0.012l0.14,0.059l0,0.016l0.064,0.136l0.017,0.046l0.001,0.062l0.031,0.014h0.016l0.076,0.014h0.016l0.016-0.001
			l0.075-0.048l0.045-0.078l0.104-0.156l-0.02-0.152v-0.016l0-0.016l0.029-0.063l0.089-0.108l0.184-0.035l0.072,0.428l-0.04,0.278
			l0.027,0.476l-0.028,0.094l-0.246,0.021l-0.353,0.039l-0.2-0.011l-0.107-0.013l-0.123,0.004l-0.062,0.001l-0.062-0.014
			l-0.246,0.006l-0.369,0.025L58.416,41.3l-0.062,0.002l-0.03,0.001l-0.599,0.075l-0.766,0.097h-0.016l0.001,0.015l-0.275,0.084
			l-0.031,0.016l-0.015,0.001l-0.166,0.111l-0.135,0.126l-0.075,0.08l-0.058,0.124l0.032,0.046l-0.028,0.093l-0.091,0.048
			l-0.125-0.073l-0.047-0.029l-0.156-0.089l-0.031-0.016l0-0.015l-0.235-0.209l-0.19-0.241l-0.08-0.106l0.059-0.108l0.123-0.02
			l0.168-0.034l0.155,0.027l0.078,0.028l0.14,0.073h0.016h0.016l0.092-0.033l0.075-0.079l0.015-0.001l0.488-0.796l0.061-0.016
			l0.165-0.189l-0.003-0.107l0.131-0.28l0.18-0.189L57.615,39.396z M64.783,42.019l0.367-0.072l0.031-0.001l0.137-0.033l0.257-0.177
			l0.104-0.124l0.104-0.111l0.176-0.326l0.022-0.355l-0.034-0.137l-0.063-0.075l-0.048-0.076l-0.096-0.121l-0.063-0.075l0.013-0.077
			l0.203,0.103l0.207,0.288l0.629,1.168l0.225,0.395l0.006,0.246l-0.042,0.169l-0.03,0.048l-0.121,0.095l-0.122,0.049l-0.213,0.098
			l-0.183,0.036l-0.293-0.039l-0.216-0.026l-0.338-0.006l-0.062,0.001l-0.183,0.066l-0.261-0.009h-0.031l-0.604-0.185l-0.093-0.028
			l-0.437-0.22l-0.467-0.219l-0.077-0.029L63.004,42.2l-0.14-0.104l-0.096-0.121l-0.034-0.151l0.199-0.006l0.156,0.074l0.062,0.044
			l0.064,0.12l0.078,0.045l0.062,0.045l0.276-0.008l0.167-0.081l0.954-0.022L64.783,42.019z M55.184,36.875l0.111,0.134l0.036,0.185
			l0.001,0.062l-0.015,0.016l0,0.016l0-0.016l-0.093-0.028h-0.015v-0.016l-0.097-0.165l-0.016-0.016l0.073-0.156l0-0.03
			L55.184,36.875z"/>
	</defs>
	<clipPath id="SVGID_6_">
		<use xlink:href="#SVGID_5_"  overflow="visible"/>
	</clipPath>
	<g clip-path="url(#SVGID_6_)">
		<defs>
			<rect id="SVGID_7_" x="-64.36" y="-3.275" width="619.124" height="1261.465"/>
		</defs>
		<clipPath id="SVGID_8_">
			<use xlink:href="#SVGID_7_"  overflow="visible"/>
		</clipPath>
		<rect x="17.614" y="12.191" clip-path="url(#SVGID_8_)" fill="#FEFEFE" width="51.603" height="32.908"/>
	</g>
</g>
<g>
	<defs>
		<polygon id="SVGID_9_" points="31.438,22.13 31.438,26.178 30.451,26.178 30.451,23.896 29.511,26.178 28.779,26.178 
			27.839,23.896 27.839,26.178 26.853,26.178 26.853,22.13 27.983,22.13 29.148,24.922 30.307,22.13 		"/>
	</defs>
	<clipPath id="SVGID_10_">
		<use xlink:href="#SVGID_9_"  overflow="visible"/>
	</clipPath>
	<g clip-path="url(#SVGID_10_)">
		<defs>
			<rect id="SVGID_11_" x="-64.36" y="-3.275" width="619.124" height="1261.465"/>
		</defs>
		<clipPath id="SVGID_12_">
			<use xlink:href="#SVGID_11_"  overflow="visible"/>
		</clipPath>
		<rect x="24.703" y="19.98" clip-path="url(#SVGID_12_)" fill="#2B366C" width="8.884" height="8.348"/>
	</g>
</g>
<g>
	<defs>
		<path id="SVGID_13_" d="M35.451,26.178l-0.225-0.68h-1.454l-0.225,0.68h-1.049l1.407-4.06h1.2l1.401,4.06H35.451z M34.021,24.749
			h0.958L34.5,23.307L34.021,24.749z"/>
	</defs>
	<clipPath id="SVGID_14_">
		<use xlink:href="#SVGID_13_"  overflow="visible"/>
	</clipPath>
	<g clip-path="url(#SVGID_14_)">
		<defs>
			<rect id="SVGID_15_" x="-64.36" y="-3.275" width="619.124" height="1261.465"/>
		</defs>
		<clipPath id="SVGID_16_">
			<use xlink:href="#SVGID_15_"  overflow="visible"/>
		</clipPath>
		<rect x="30.349" y="19.969" clip-path="url(#SVGID_16_)" fill="#2B366C" width="8.308" height="8.359"/>
	</g>
</g>
<g>
	<defs>
		<path id="SVGID_17_" d="M38.94,22.852c-0.123,0-0.224,0.033-0.303,0.098c-0.079,0.065-0.118,0.159-0.118,0.282
			s0.037,0.222,0.109,0.297c0.073,0.075,0.168,0.133,0.285,0.174c0.117,0.04,0.248,0.078,0.392,0.115
			c0.145,0.038,0.288,0.082,0.43,0.133s0.272,0.116,0.39,0.194c0.117,0.076,0.212,0.185,0.285,0.325
			c0.073,0.14,0.11,0.307,0.11,0.504c0,0.343-0.139,0.636-0.418,0.881c-0.279,0.244-0.646,0.365-1.102,0.365
			s-0.823-0.109-1.102-0.329c-0.279-0.219-0.418-0.53-0.418-0.934h1.05c0.027,0.323,0.192,0.485,0.496,0.485
			c0.143,0,0.254-0.038,0.335-0.112c0.081-0.076,0.121-0.171,0.121-0.287c0-0.115-0.037-0.21-0.109-0.282
			c-0.073-0.073-0.168-0.13-0.286-0.173c-0.117-0.042-0.248-0.082-0.393-0.118c-0.144-0.036-0.287-0.081-0.429-0.136
			c-0.142-0.054-0.272-0.118-0.389-0.193c-0.118-0.075-0.212-0.183-0.286-0.323c-0.073-0.141-0.11-0.306-0.11-0.499
			c0-0.376,0.14-0.678,0.421-0.905c0.281-0.227,0.639-0.339,1.075-0.339c0.437,0,0.79,0.099,1.059,0.296
			c0.269,0.198,0.41,0.51,0.421,0.937h-1.074c-0.015-0.146-0.062-0.258-0.141-0.337C39.164,22.891,39.063,22.852,38.94,22.852"/>
	</defs>
	<clipPath id="SVGID_18_">
		<use xlink:href="#SVGID_17_"  overflow="visible"/>
	</clipPath>
	<g clip-path="url(#SVGID_18_)">
		<defs>
			<rect id="SVGID_19_" x="-64.36" y="-3.275" width="619.124" height="1261.465"/>
		</defs>
		<clipPath id="SVGID_20_">
			<use xlink:href="#SVGID_19_"  overflow="visible"/>
		</clipPath>
		<rect x="35.331" y="19.923" clip-path="url(#SVGID_20_)" fill="#2B366C" width="7.338" height="8.445"/>
	</g>
</g>
<g>
	<defs>
		<path id="SVGID_21_" d="M43.248,22.852c-0.123,0-0.224,0.033-0.303,0.098c-0.079,0.065-0.118,0.159-0.118,0.282
			s0.036,0.222,0.109,0.297c0.074,0.075,0.168,0.133,0.286,0.174c0.117,0.04,0.248,0.078,0.392,0.115
			c0.145,0.038,0.288,0.082,0.43,0.133s0.272,0.116,0.389,0.194c0.117,0.076,0.212,0.185,0.285,0.325
			c0.074,0.14,0.11,0.307,0.11,0.504c0,0.343-0.14,0.636-0.418,0.881c-0.279,0.244-0.646,0.365-1.102,0.365
			s-0.823-0.109-1.102-0.329c-0.279-0.219-0.418-0.53-0.418-0.934h1.05c0.026,0.323,0.192,0.485,0.496,0.485
			c0.142,0,0.253-0.038,0.334-0.112c0.081-0.076,0.121-0.171,0.121-0.287c0-0.115-0.037-0.21-0.109-0.282
			c-0.074-0.073-0.169-0.13-0.286-0.173c-0.117-0.042-0.248-0.082-0.392-0.118s-0.287-0.081-0.43-0.136
			c-0.143-0.054-0.272-0.118-0.389-0.193c-0.117-0.075-0.213-0.183-0.285-0.323c-0.074-0.141-0.11-0.306-0.11-0.499
			c0-0.376,0.141-0.678,0.42-0.905c0.281-0.227,0.64-0.339,1.076-0.339s0.789,0.099,1.058,0.296c0.269,0.198,0.409,0.51,0.421,0.937
			h-1.073c-0.016-0.146-0.063-0.258-0.142-0.337C43.472,22.891,43.371,22.852,43.248,22.852"/>
	</defs>
	<clipPath id="SVGID_22_">
		<use xlink:href="#SVGID_21_"  overflow="visible"/>
	</clipPath>
	<g clip-path="url(#SVGID_22_)">
		<defs>
			<rect id="SVGID_23_" x="-64.36" y="-3.275" width="619.124" height="1261.465"/>
		</defs>
		<clipPath id="SVGID_24_">
			<use xlink:href="#SVGID_23_"  overflow="visible"/>
		</clipPath>
		<rect x="39.639" y="19.923" clip-path="url(#SVGID_24_)" fill="#2B366C" width="7.338" height="8.445"/>
	</g>
</g>
<g>
	<defs>
		<rect id="SVGID_25_" x="16.9" y="0.801" width="56.084" height="56.085"/>
	</defs>
	<clipPath id="SVGID_26_">
		<use xlink:href="#SVGID_25_"  overflow="visible"/>
	</clipPath>
	<g clip-path="url(#SVGID_26_)">
		<defs>
			<rect id="SVGID_27_" x="-64.36" y="-3.275" width="619.124" height="1261.465"/>
		</defs>
		<clipPath id="SVGID_28_">
			<use xlink:href="#SVGID_27_"  overflow="visible"/>
		</clipPath>
		<g clip-path="url(#SVGID_28_)" enable-background="new    ">
			<g>
				<defs>
					<rect id="SVGID_29_" x="31.518" y="25.738" width="14.188" height="0.86"/>
				</defs>
				<clipPath id="SVGID_30_">
					<use xlink:href="#SVGID_29_"  overflow="visible"/>
				</clipPath>
				<g clip-path="url(#SVGID_30_)">
					<defs>
						<rect id="SVGID_31_" x="31.802" y="25.847" width="0.345" height="0.345"/>
					</defs>
					<clipPath id="SVGID_32_">
						<use xlink:href="#SVGID_31_"  overflow="visible"/>
					</clipPath>
					<g clip-path="url(#SVGID_32_)">
						<defs>
							<rect id="SVGID_33_" x="16.9" y="0.801" width="56.323" height="56.323"/>
						</defs>
						<clipPath id="SVGID_34_">
							<use xlink:href="#SVGID_33_"  overflow="visible"/>
						</clipPath>
						<rect x="29.652" y="23.697" clip-path="url(#SVGID_34_)" fill="#2B366C" width="4.646" height="4.646"/>
					</g>
				</g>
				<g clip-path="url(#SVGID_30_)">
					<defs>
						<rect id="SVGID_35_" x="36.89" y="25.847" width="0.345" height="0.345"/>
					</defs>
					<clipPath id="SVGID_36_">
						<use xlink:href="#SVGID_35_"  overflow="visible"/>
					</clipPath>
					<g clip-path="url(#SVGID_36_)">
						<defs>
							<rect id="SVGID_37_" x="16.9" y="0.801" width="56.323" height="56.323"/>
						</defs>
						<clipPath id="SVGID_38_">
							<use xlink:href="#SVGID_37_"  overflow="visible"/>
						</clipPath>
						<rect x="34.74" y="23.697" clip-path="url(#SVGID_38_)" fill="#2B366C" width="4.645" height="4.646"/>
					</g>
				</g>
				<g clip-path="url(#SVGID_30_)">
					<defs>
						<rect id="SVGID_39_" x="40.916" y="25.847" width="0.345" height="0.345"/>
					</defs>
					<clipPath id="SVGID_40_">
						<use xlink:href="#SVGID_39_"  overflow="visible"/>
					</clipPath>
					<g clip-path="url(#SVGID_40_)">
						<defs>
							<rect id="SVGID_41_" x="16.9" y="0.801" width="56.323" height="56.323"/>
						</defs>
						<clipPath id="SVGID_42_">
							<use xlink:href="#SVGID_41_"  overflow="visible"/>
						</clipPath>
						<rect x="38.766" y="23.697" clip-path="url(#SVGID_42_)" fill="#2B366C" width="4.645" height="4.646"/>
					</g>
				</g>
				<g clip-path="url(#SVGID_30_)">
					<defs>
						<rect id="SVGID_43_" x="45.271" y="25.847" width="0.346" height="0.345"/>
					</defs>
					<clipPath id="SVGID_44_">
						<use xlink:href="#SVGID_43_"  overflow="visible"/>
					</clipPath>
					<g clip-path="url(#SVGID_44_)">
						<defs>
							<rect id="SVGID_45_" x="16.9" y="0.801" width="56.323" height="56.323"/>
						</defs>
						<clipPath id="SVGID_46_">
							<use xlink:href="#SVGID_45_"  overflow="visible"/>
						</clipPath>
						<rect x="43.121" y="23.697" clip-path="url(#SVGID_46_)" fill="#2B366C" width="4.645" height="4.646"/>
					</g>
				</g>
			</g>
		</g>
	</g>
</g>
<g>
	<defs>
		<polygon id="SVGID_47_" points="99.001,25.721 99.001,41.211 95.227,41.211 95.227,32.473 91.632,41.211 88.829,41.211 
			85.232,32.473 85.232,41.211 81.459,41.211 81.459,25.721 85.783,25.721 90.24,36.401 94.675,25.721 		"/>
	</defs>
	<clipPath id="SVGID_48_">
		<use xlink:href="#SVGID_47_"  overflow="visible"/>
	</clipPath>
	<g clip-path="url(#SVGID_48_)">
		<defs>
			<rect id="SVGID_49_" x="-64.36" y="-3.275" width="619.124" height="1261.465"/>
		</defs>
		<clipPath id="SVGID_50_">
			<use xlink:href="#SVGID_49_"  overflow="visible"/>
		</clipPath>
		<rect x="79.308" y="23.571" clip-path="url(#SVGID_50_)" fill="#2B366C" width="21.843" height="19.789"/>
	</g>
</g>
<g>
	<defs>
		<path id="SVGID_51_" d="M114.358,41.211l-0.862-2.604h-5.559l-0.861,2.604h-4.016l5.385-15.534h4.588l5.362,15.534H114.358z
			 M108.885,35.739h3.662l-1.83-5.517L108.885,35.739z"/>
	</defs>
	<clipPath id="SVGID_52_">
		<use xlink:href="#SVGID_51_"  overflow="visible"/>
	</clipPath>
	<g clip-path="url(#SVGID_52_)">
		<defs>
			<rect id="SVGID_53_" x="-64.36" y="-3.275" width="619.124" height="1261.465"/>
		</defs>
		<clipPath id="SVGID_54_">
			<use xlink:href="#SVGID_53_"  overflow="visible"/>
		</clipPath>
		<rect x="100.911" y="23.528" clip-path="url(#SVGID_54_)" fill="#2B366C" width="19.635" height="19.833"/>
	</g>
</g>
<g>
	<defs>
		<rect id="SVGID_55_" x="122.124" y="25.5" width="11.629" height="15.865"/>
	</defs>
	<clipPath id="SVGID_56_">
		<use xlink:href="#SVGID_55_"  overflow="visible"/>
	</clipPath>
	<g clip-path="url(#SVGID_56_)">
		<defs>
			<rect id="SVGID_57_" x="-64.36" y="-3.275" width="619.124" height="1261.465"/>
		</defs>
		<clipPath id="SVGID_58_">
			<use xlink:href="#SVGID_57_"  overflow="visible"/>
		</clipPath>
		<g clip-path="url(#SVGID_58_)" enable-background="new    ">
			<g>
				<defs>
					<rect id="SVGID_59_" x="121.805" y="25.308" width="12.039" height="16.337"/>
				</defs>
				<clipPath id="SVGID_60_">
					<use xlink:href="#SVGID_59_"  overflow="visible"/>
				</clipPath>
				<g clip-path="url(#SVGID_60_)">
					<defs>
						<path id="SVGID_61_" d="M127.707,28.479c-0.472,0-0.856,0.125-1.159,0.375c-0.3,0.251-0.452,0.61-0.452,1.081
							s0.14,0.85,0.42,1.137c0.279,0.287,0.644,0.507,1.093,0.662c0.447,0.154,0.948,0.302,1.499,0.44
							c0.553,0.14,1.1,0.31,1.644,0.508c0.546,0.198,1.042,0.445,1.491,0.74c0.448,0.293,0.812,0.709,1.091,1.246
							c0.28,0.536,0.42,1.18,0.42,1.931c0,1.31-0.534,2.431-1.6,3.365c-1.066,0.935-2.471,1.4-4.215,1.4
							c-1.742,0-3.146-0.419-4.214-1.257c-1.067-0.84-1.601-2.03-1.601-3.576h4.017c0.102,1.237,0.735,1.854,1.897,1.854
							c0.544,0,0.971-0.144,1.28-0.431c0.309-0.286,0.463-0.65,0.463-1.092c0-0.442-0.141-0.802-0.418-1.081
							c-0.28-0.279-0.645-0.501-1.094-0.662c-0.448-0.162-0.949-0.312-1.5-0.452c-0.551-0.141-1.101-0.312-1.643-0.519
							c-0.546-0.205-1.041-0.452-1.49-0.74c-0.449-0.285-0.813-0.697-1.093-1.235c-0.28-0.536-0.42-1.172-0.42-1.909
							c0-1.44,0.537-2.595,1.611-3.464c1.074-0.867,2.445-1.301,4.115-1.301s3.019,0.379,4.049,1.136
							c1.029,0.758,1.566,1.953,1.609,3.585h-4.103c-0.059-0.559-0.24-0.988-0.541-1.29
							C128.563,28.63,128.178,28.479,127.707,28.479"/>
					</defs>
					<clipPath id="SVGID_62_">
						<use xlink:href="#SVGID_61_"  overflow="visible"/>
					</clipPath>
					<g clip-path="url(#SVGID_62_)">
						<defs>
							<rect id="SVGID_63_" x="121.805" y="25.308" width="12.039" height="16.337"/>
						</defs>
						<clipPath id="SVGID_64_">
							<use xlink:href="#SVGID_63_"  overflow="visible"/>
						</clipPath>
						<rect x="119.975" y="23.351" clip-path="url(#SVGID_64_)" fill="#2B366C" width="15.927" height="20.165"/>
					</g>
				</g>
			</g>
		</g>
	</g>
</g>
<g>
	<defs>
		<rect id="SVGID_65_" x="138.607" y="25.5" width="11.629" height="15.865"/>
	</defs>
	<clipPath id="SVGID_66_">
		<use xlink:href="#SVGID_65_"  overflow="visible"/>
	</clipPath>
	<g clip-path="url(#SVGID_66_)">
		<defs>
			<rect id="SVGID_67_" x="-64.36" y="-3.275" width="619.124" height="1261.465"/>
		</defs>
		<clipPath id="SVGID_68_">
			<use xlink:href="#SVGID_67_"  overflow="visible"/>
		</clipPath>
		<g clip-path="url(#SVGID_68_)" enable-background="new    ">
			<g>
				<defs>
					<rect id="SVGID_69_" x="138.576" y="25.308" width="12.038" height="16.337"/>
				</defs>
				<clipPath id="SVGID_70_">
					<use xlink:href="#SVGID_69_"  overflow="visible"/>
				</clipPath>
				<g clip-path="url(#SVGID_70_)">
					<defs>
						<path id="SVGID_71_" d="M144.19,28.479c-0.472,0-0.858,0.125-1.159,0.375c-0.302,0.251-0.452,0.61-0.452,1.081
							s0.14,0.85,0.42,1.137c0.277,0.287,0.642,0.507,1.091,0.662c0.449,0.154,0.95,0.302,1.501,0.44
							c0.553,0.14,1.1,0.31,1.644,0.508s1.042,0.445,1.489,0.74c0.448,0.293,0.812,0.709,1.093,1.246
							c0.279,0.536,0.42,1.18,0.42,1.931c0,1.31-0.534,2.431-1.6,3.365c-1.069,0.935-2.473,1.4-4.215,1.4
							c-1.743,0-3.148-0.419-4.216-1.257c-1.065-0.84-1.599-2.03-1.599-3.576h4.015c0.104,1.237,0.735,1.854,1.897,1.854
							c0.546,0,0.973-0.144,1.28-0.431c0.309-0.286,0.464-0.65,0.464-1.092c0-0.442-0.142-0.802-0.419-1.081
							c-0.28-0.279-0.645-0.501-1.092-0.662c-0.45-0.162-0.949-0.312-1.501-0.452c-0.552-0.141-1.1-0.312-1.644-0.519
							c-0.546-0.205-1.041-0.452-1.49-0.74c-0.449-0.285-0.812-0.697-1.092-1.235c-0.279-0.536-0.419-1.172-0.419-1.909
							c0-1.44,0.537-2.595,1.61-3.464c1.074-0.867,2.445-1.301,4.115-1.301c1.669,0,3.019,0.379,4.048,1.136
							c1.029,0.758,1.568,1.953,1.611,3.585h-4.104c-0.059-0.559-0.238-0.988-0.541-1.29C145.047,28.63,144.66,28.479,144.19,28.479
							"/>
					</defs>
					<clipPath id="SVGID_72_">
						<use xlink:href="#SVGID_71_"  overflow="visible"/>
					</clipPath>
					<g clip-path="url(#SVGID_72_)">
						<defs>
							<rect id="SVGID_73_" x="138.576" y="25.308" width="12.038" height="16.337"/>
						</defs>
						<clipPath id="SVGID_74_">
							<use xlink:href="#SVGID_73_"  overflow="visible"/>
						</clipPath>
						<rect x="136.459" y="23.351" clip-path="url(#SVGID_74_)" fill="#2B366C" width="15.927" height="20.165"/>
					</g>
				</g>
			</g>
		</g>
	</g>
</g>
<g>
	<defs>
		<polygon id="SVGID_75_" points="84.759,44.661 84.759,47.724 84.146,47.724 84.146,45.788 83.311,47.724 82.868,47.724 
			82.04,45.798 82.04,47.724 81.421,47.724 81.421,44.661 82.11,44.661 83.093,46.93 84.075,44.661 		"/>
	</defs>
	<clipPath id="SVGID_76_">
		<use xlink:href="#SVGID_75_"  overflow="visible"/>
	</clipPath>
	<g clip-path="url(#SVGID_76_)">
		<defs>
			<rect id="SVGID_77_" x="-64.36" y="-3.275" width="619.124" height="1261.465"/>
		</defs>
		<clipPath id="SVGID_78_">
			<use xlink:href="#SVGID_77_"  overflow="visible"/>
		</clipPath>
		<rect x="79.27" y="42.511" clip-path="url(#SVGID_78_)" fill="#666666" width="7.639" height="7.362"/>
	</g>
</g>
<g>
	<defs>
		<path id="SVGID_79_" d="M87.47,47.724l-0.198-0.575H86.08l-0.197,0.575h-0.653l1.082-3.071h0.733l1.08,3.071H87.47z
			 M86.241,46.675h0.875l-0.439-1.277L86.241,46.675z"/>
	</defs>
	<clipPath id="SVGID_80_">
		<use xlink:href="#SVGID_79_"  overflow="visible"/>
	</clipPath>
	<g clip-path="url(#SVGID_80_)">
		<defs>
			<rect id="SVGID_81_" x="-64.36" y="-3.275" width="619.124" height="1261.465"/>
		</defs>
		<clipPath id="SVGID_82_">
			<use xlink:href="#SVGID_81_"  overflow="visible"/>
		</clipPath>
		<rect x="83.079" y="42.503" clip-path="url(#SVGID_82_)" fill="#666666" width="7.195" height="7.37"/>
	</g>
</g>
<g>
	<defs>
		<path id="SVGID_83_" d="M89.589,45.113c-0.122,0-0.223,0.031-0.3,0.095c-0.078,0.062-0.116,0.149-0.116,0.261
			s0.027,0.198,0.085,0.261s0.133,0.111,0.226,0.145c0.094,0.034,0.197,0.064,0.309,0.09c0.109,0.026,0.221,0.059,0.332,0.097
			s0.214,0.085,0.309,0.141c0.093,0.056,0.169,0.137,0.226,0.243c0.058,0.106,0.085,0.237,0.085,0.39c0,0.251-0.1,0.468-0.301,0.648
			c-0.2,0.182-0.467,0.271-0.798,0.271s-0.601-0.078-0.805-0.234c-0.206-0.156-0.308-0.376-0.308-0.66h0.658
			c0.023,0.269,0.176,0.403,0.461,0.403c0.141,0,0.25-0.036,0.332-0.109s0.124-0.171,0.124-0.292s-0.054-0.217-0.163-0.287
			c-0.107-0.07-0.239-0.122-0.393-0.158c-0.153-0.035-0.308-0.077-0.463-0.127c-0.154-0.05-0.285-0.137-0.395-0.261
			c-0.108-0.125-0.162-0.29-0.162-0.494c0-0.277,0.101-0.5,0.303-0.667c0.201-0.166,0.462-0.249,0.778-0.249
			c0.317,0,0.573,0.071,0.765,0.217c0.193,0.144,0.299,0.364,0.316,0.659h-0.675c-0.013-0.116-0.056-0.209-0.132-0.278
			C89.811,45.148,89.712,45.113,89.589,45.113"/>
	</defs>
	<clipPath id="SVGID_84_">
		<use xlink:href="#SVGID_83_"  overflow="visible"/>
	</clipPath>
	<g clip-path="url(#SVGID_84_)">
		<defs>
			<rect id="SVGID_85_" x="-64.36" y="-3.275" width="619.124" height="1261.465"/>
		</defs>
		<clipPath id="SVGID_86_">
			<use xlink:href="#SVGID_85_"  overflow="visible"/>
		</clipPath>
		<rect x="86.383" y="42.468" clip-path="url(#SVGID_86_)" fill="#666666" width="6.511" height="7.437"/>
	</g>
</g>
<g>
	<defs>
		<path id="SVGID_87_" d="M92.372,45.113c-0.123,0-0.225,0.031-0.301,0.095c-0.078,0.062-0.117,0.149-0.117,0.261
			s0.029,0.198,0.086,0.261s0.132,0.111,0.227,0.145c0.093,0.034,0.195,0.064,0.305,0.09c0.113,0.026,0.225,0.059,0.334,0.097
			c0.112,0.038,0.215,0.085,0.308,0.141c0.094,0.056,0.169,0.137,0.226,0.243s0.087,0.237,0.087,0.39
			c0,0.251-0.101,0.468-0.301,0.648c-0.2,0.182-0.466,0.271-0.8,0.271c-0.332,0-0.6-0.078-0.804-0.234s-0.308-0.376-0.308-0.66
			h0.657c0.024,0.269,0.178,0.403,0.461,0.403c0.14,0,0.253-0.036,0.335-0.109c0.081-0.073,0.122-0.171,0.122-0.292
			s-0.054-0.217-0.163-0.287c-0.107-0.07-0.238-0.122-0.393-0.158c-0.153-0.035-0.307-0.077-0.463-0.127
			c-0.154-0.05-0.286-0.137-0.393-0.261c-0.109-0.125-0.164-0.29-0.164-0.494c0-0.277,0.102-0.5,0.303-0.667
			c0.203-0.166,0.461-0.249,0.779-0.249c0.316,0,0.571,0.071,0.765,0.217c0.194,0.144,0.299,0.364,0.316,0.659h-0.675
			c-0.013-0.116-0.057-0.209-0.133-0.278C92.593,45.148,92.494,45.113,92.372,45.113"/>
	</defs>
	<clipPath id="SVGID_88_">
		<use xlink:href="#SVGID_87_"  overflow="visible"/>
	</clipPath>
	<g clip-path="url(#SVGID_88_)">
		<defs>
			<rect id="SVGID_89_" x="-64.36" y="-3.275" width="619.124" height="1261.465"/>
		</defs>
		<clipPath id="SVGID_90_">
			<use xlink:href="#SVGID_89_"  overflow="visible"/>
		</clipPath>
		<rect x="89.165" y="42.468" clip-path="url(#SVGID_90_)" fill="#666666" width="6.51" height="7.437"/>
	</g>
</g>
<g>
	<defs>
		<path id="SVGID_91_" d="M96.171,47.724l-0.199-0.575H94.78l-0.198,0.575h-0.653l1.083-3.071h0.732l1.079,3.071H96.171z
			 M94.941,46.675h0.873l-0.438-1.277L94.941,46.675z"/>
	</defs>
	<clipPath id="SVGID_92_">
		<use xlink:href="#SVGID_91_"  overflow="visible"/>
	</clipPath>
	<g clip-path="url(#SVGID_92_)">
		<defs>
			<rect id="SVGID_93_" x="-64.36" y="-3.275" width="619.124" height="1261.465"/>
		</defs>
		<clipPath id="SVGID_94_">
			<use xlink:href="#SVGID_93_"  overflow="visible"/>
		</clipPath>
		<rect x="91.779" y="42.503" clip-path="url(#SVGID_94_)" fill="#666666" width="7.194" height="7.37"/>
	</g>
</g>
<g>
	<defs>
		<path id="SVGID_95_" d="M97.578,47.307c-0.303-0.295-0.451-0.669-0.451-1.123c0-0.453,0.15-0.827,0.454-1.123
			c0.303-0.295,0.674-0.442,1.11-0.442c0.334,0,0.631,0.084,0.89,0.254c0.259,0.169,0.444,0.407,0.555,0.715h-0.741
			c-0.138-0.269-0.371-0.403-0.703-0.403c-0.276,0-0.502,0.092-0.677,0.273c-0.174,0.184-0.261,0.426-0.261,0.729
			s0.087,0.546,0.261,0.729c0.175,0.183,0.4,0.274,0.677,0.274c0.328,0,0.563-0.135,0.703-0.404h0.741
			c-0.11,0.308-0.296,0.545-0.555,0.713s-0.556,0.253-0.89,0.253C98.251,47.75,97.88,47.602,97.578,47.307"/>
	</defs>
	<clipPath id="SVGID_96_">
		<use xlink:href="#SVGID_95_"  overflow="visible"/>
	</clipPath>
	<g clip-path="url(#SVGID_96_)">
		<defs>
			<rect id="SVGID_97_" x="-64.36" y="-3.275" width="619.124" height="1261.465"/>
		</defs>
		<clipPath id="SVGID_98_">
			<use xlink:href="#SVGID_97_"  overflow="visible"/>
		</clipPath>
		<rect x="94.977" y="42.468" clip-path="url(#SVGID_98_)" fill="#666666" width="7.308" height="7.432"/>
	</g>
</g>
<g>
	<defs>
		<polygon id="SVGID_99_" points="102.649,44.661 103.268,44.661 103.268,47.724 102.649,47.724 102.649,46.412 101.334,46.412 
			101.334,47.724 100.716,47.724 100.716,44.661 101.334,44.661 101.334,45.938 102.649,45.938 		"/>
	</defs>
	<clipPath id="SVGID_100_">
		<use xlink:href="#SVGID_99_"  overflow="visible"/>
	</clipPath>
	<g clip-path="url(#SVGID_100_)">
		<defs>
			<rect id="SVGID_101_" x="-64.36" y="-3.275" width="619.124" height="1261.465"/>
		</defs>
		<clipPath id="SVGID_102_">
			<use xlink:href="#SVGID_101_"  overflow="visible"/>
		</clipPath>
		<rect x="98.565" y="42.511" clip-path="url(#SVGID_102_)" fill="#666666" width="6.853" height="7.362"/>
	</g>
</g>
<g>
	<defs>
		<path id="SVGID_103_" d="M103.962,46.548v-1.887h0.617v1.887c0,0.211,0.055,0.37,0.16,0.479c0.107,0.107,0.261,0.162,0.459,0.162
			c0.199,0,0.353-0.055,0.462-0.162c0.106-0.108,0.162-0.268,0.162-0.479v-1.887h0.613v1.887c0,0.386-0.121,0.684-0.363,0.892
			c-0.243,0.21-0.538,0.314-0.886,0.314c-0.349,0-0.641-0.104-0.874-0.312C104.078,47.235,103.962,46.937,103.962,46.548"/>
	</defs>
	<clipPath id="SVGID_104_">
		<use xlink:href="#SVGID_103_"  overflow="visible"/>
	</clipPath>
	<g clip-path="url(#SVGID_104_)">
		<defs>
			<rect id="SVGID_105_" x="-64.36" y="-3.275" width="619.124" height="1261.465"/>
		</defs>
		<clipPath id="SVGID_106_">
			<use xlink:href="#SVGID_105_"  overflow="visible"/>
		</clipPath>
		<rect x="101.812" y="42.511" clip-path="url(#SVGID_106_)" fill="#666666" width="6.772" height="7.394"/>
	</g>
</g>
<g>
	<defs>
		<path id="SVGID_107_" d="M108.115,45.113c-0.122,0-0.223,0.031-0.3,0.095c-0.078,0.062-0.116,0.149-0.116,0.261
			s0.029,0.198,0.086,0.261c0.056,0.062,0.132,0.111,0.227,0.145c0.094,0.034,0.195,0.064,0.306,0.09
			c0.112,0.026,0.223,0.059,0.333,0.097c0.112,0.038,0.215,0.085,0.308,0.141c0.094,0.056,0.169,0.137,0.227,0.243
			c0.057,0.106,0.086,0.237,0.086,0.39c0,0.251-0.1,0.468-0.301,0.648c-0.2,0.182-0.466,0.271-0.799,0.271
			c-0.332,0-0.602-0.078-0.805-0.234c-0.204-0.156-0.308-0.376-0.308-0.66h0.658c0.023,0.269,0.176,0.403,0.461,0.403
			c0.14,0,0.252-0.036,0.333-0.109c0.083-0.073,0.124-0.171,0.124-0.292s-0.055-0.217-0.164-0.287
			c-0.106-0.07-0.238-0.122-0.392-0.158c-0.153-0.035-0.308-0.077-0.463-0.127s-0.286-0.137-0.396-0.261
			c-0.106-0.125-0.162-0.29-0.162-0.494c0-0.277,0.102-0.5,0.302-0.667c0.204-0.166,0.462-0.249,0.779-0.249
			c0.319,0,0.573,0.071,0.767,0.217c0.191,0.144,0.299,0.364,0.316,0.659h-0.677c-0.011-0.116-0.056-0.209-0.132-0.278
			C108.338,45.148,108.238,45.113,108.115,45.113"/>
	</defs>
	<clipPath id="SVGID_108_">
		<use xlink:href="#SVGID_107_"  overflow="visible"/>
	</clipPath>
	<g clip-path="url(#SVGID_108_)">
		<defs>
			<rect id="SVGID_109_" x="-64.36" y="-3.275" width="619.124" height="1261.465"/>
		</defs>
		<clipPath id="SVGID_110_">
			<use xlink:href="#SVGID_109_"  overflow="visible"/>
		</clipPath>
		<rect x="104.908" y="42.468" clip-path="url(#SVGID_110_)" fill="#666666" width="6.511" height="7.437"/>
	</g>
</g>
<g>
	<defs>
		<polygon id="SVGID_111_" points="111.673,44.652 111.673,45.127 110.524,45.127 110.524,45.93 111.542,45.93 111.542,46.402 
			110.524,46.402 110.524,47.25 111.673,47.25 111.673,47.724 109.906,47.724 109.906,44.652 		"/>
	</defs>
	<clipPath id="SVGID_112_">
		<use xlink:href="#SVGID_111_"  overflow="visible"/>
	</clipPath>
	<g clip-path="url(#SVGID_112_)">
		<defs>
			<rect id="SVGID_113_" x="-64.36" y="-3.275" width="619.124" height="1261.465"/>
		</defs>
		<clipPath id="SVGID_114_">
			<use xlink:href="#SVGID_113_"  overflow="visible"/>
		</clipPath>
		<rect x="107.756" y="42.503" clip-path="url(#SVGID_114_)" fill="#666666" width="6.068" height="7.37"/>
	</g>
</g>
<g>
	<defs>
		<polygon id="SVGID_115_" points="112.17,45.135 112.17,44.661 114.437,44.661 114.437,45.135 113.608,45.135 113.608,47.724 
			112.994,47.724 112.994,45.135 		"/>
	</defs>
	<clipPath id="SVGID_116_">
		<use xlink:href="#SVGID_115_"  overflow="visible"/>
	</clipPath>
	<g clip-path="url(#SVGID_116_)">
		<defs>
			<rect id="SVGID_117_" x="-64.36" y="-3.275" width="619.124" height="1261.465"/>
		</defs>
		<clipPath id="SVGID_118_">
			<use xlink:href="#SVGID_117_"  overflow="visible"/>
		</clipPath>
		<rect x="110.02" y="42.511" clip-path="url(#SVGID_118_)" fill="#666666" width="6.567" height="7.362"/>
	</g>
</g>
<g>
	<defs>
		<polygon id="SVGID_119_" points="114.776,45.135 114.776,44.661 117.043,44.661 117.043,45.135 116.215,45.135 116.215,47.724 
			115.601,47.724 115.601,45.135 		"/>
	</defs>
	<clipPath id="SVGID_120_">
		<use xlink:href="#SVGID_119_"  overflow="visible"/>
	</clipPath>
	<g clip-path="url(#SVGID_120_)">
		<defs>
			<rect id="SVGID_121_" x="-64.36" y="-3.275" width="619.124" height="1261.465"/>
		</defs>
		<clipPath id="SVGID_122_">
			<use xlink:href="#SVGID_121_"  overflow="visible"/>
		</clipPath>
		<rect x="112.626" y="42.511" clip-path="url(#SVGID_122_)" fill="#666666" width="6.567" height="7.362"/>
	</g>
</g>
<g>
	<defs>
		<path id="SVGID_123_" d="M118.552,45.113c-0.123,0-0.223,0.031-0.301,0.095c-0.077,0.062-0.115,0.149-0.115,0.261
			s0.027,0.198,0.084,0.261c0.058,0.062,0.134,0.111,0.227,0.145c0.095,0.034,0.197,0.064,0.308,0.09
			c0.112,0.026,0.223,0.059,0.333,0.097c0.112,0.038,0.214,0.085,0.308,0.141c0.093,0.056,0.169,0.137,0.227,0.243
			c0.057,0.106,0.084,0.237,0.084,0.39c0,0.251-0.099,0.468-0.299,0.648c-0.202,0.182-0.468,0.271-0.799,0.271
			c-0.332,0-0.602-0.078-0.805-0.234c-0.204-0.156-0.308-0.376-0.308-0.66h0.657c0.024,0.269,0.177,0.403,0.462,0.403
			c0.14,0,0.252-0.036,0.333-0.109s0.123-0.171,0.123-0.292s-0.054-0.217-0.163-0.287c-0.108-0.07-0.238-0.122-0.392-0.158
			c-0.154-0.035-0.308-0.077-0.465-0.127c-0.153-0.05-0.285-0.137-0.394-0.261c-0.108-0.125-0.162-0.29-0.162-0.494
			c0-0.277,0.102-0.5,0.302-0.667c0.202-0.166,0.461-0.249,0.779-0.249c0.317,0,0.573,0.071,0.765,0.217
			c0.193,0.144,0.299,0.364,0.316,0.659h-0.676c-0.01-0.116-0.055-0.209-0.131-0.278C118.775,45.148,118.675,45.113,118.552,45.113"
			/>
	</defs>
	<clipPath id="SVGID_124_">
		<use xlink:href="#SVGID_123_"  overflow="visible"/>
	</clipPath>
	<g clip-path="url(#SVGID_124_)">
		<defs>
			<rect id="SVGID_125_" x="-64.36" y="-3.275" width="619.124" height="1261.465"/>
		</defs>
		<clipPath id="SVGID_126_">
			<use xlink:href="#SVGID_125_"  overflow="visible"/>
		</clipPath>
		<rect x="115.345" y="42.468" clip-path="url(#SVGID_126_)" fill="#666666" width="6.511" height="7.437"/>
	</g>
</g>
<g>
	<defs>
		<path id="SVGID_127_" d="M123.713,47.724l-0.197-0.575h-1.193l-0.198,0.575h-0.653l1.083-3.071h0.732l1.079,3.071H123.713z
			 M122.483,46.675h0.873l-0.438-1.277L122.483,46.675z"/>
	</defs>
	<clipPath id="SVGID_128_">
		<use xlink:href="#SVGID_127_"  overflow="visible"/>
	</clipPath>
	<g clip-path="url(#SVGID_128_)">
		<defs>
			<rect id="SVGID_129_" x="-64.36" y="-3.275" width="619.124" height="1261.465"/>
		</defs>
		<clipPath id="SVGID_130_">
			<use xlink:href="#SVGID_129_"  overflow="visible"/>
		</clipPath>
		<rect x="119.321" y="42.503" clip-path="url(#SVGID_130_)" fill="#666666" width="7.194" height="7.37"/>
	</g>
</g>
<g>
	<defs>
		<path id="SVGID_131_" d="M125.831,45.113c-0.122,0-0.223,0.031-0.302,0.095c-0.076,0.062-0.115,0.149-0.115,0.261
			s0.029,0.198,0.086,0.261s0.131,0.111,0.227,0.145c0.093,0.034,0.196,0.064,0.307,0.09c0.111,0.026,0.222,0.059,0.332,0.097
			c0.112,0.038,0.216,0.085,0.308,0.141c0.095,0.056,0.169,0.137,0.226,0.243c0.058,0.106,0.087,0.237,0.087,0.39
			c0,0.251-0.101,0.468-0.301,0.648c-0.2,0.182-0.466,0.271-0.8,0.271c-0.331,0-0.599-0.078-0.803-0.234
			c-0.205-0.156-0.31-0.376-0.31-0.66h0.658c0.024,0.269,0.178,0.403,0.463,0.403c0.14,0,0.251-0.036,0.333-0.109
			s0.123-0.171,0.123-0.292s-0.056-0.217-0.162-0.287c-0.109-0.07-0.24-0.122-0.393-0.158c-0.155-0.035-0.309-0.077-0.464-0.127
			c-0.156-0.05-0.287-0.137-0.396-0.261c-0.107-0.125-0.163-0.29-0.163-0.494c0-0.277,0.103-0.5,0.305-0.667
			c0.202-0.166,0.461-0.249,0.778-0.249c0.318,0,0.572,0.071,0.766,0.217c0.193,0.144,0.299,0.364,0.315,0.659h-0.675
			c-0.013-0.116-0.056-0.209-0.133-0.278C126.054,45.148,125.954,45.113,125.831,45.113"/>
	</defs>
	<clipPath id="SVGID_132_">
		<use xlink:href="#SVGID_131_"  overflow="visible"/>
	</clipPath>
	<g clip-path="url(#SVGID_132_)">
		<defs>
			<rect id="SVGID_133_" x="-64.36" y="-3.275" width="619.124" height="1261.465"/>
		</defs>
		<clipPath id="SVGID_134_">
			<use xlink:href="#SVGID_133_"  overflow="visible"/>
		</clipPath>
		<rect x="122.625" y="42.468" clip-path="url(#SVGID_134_)" fill="#666666" width="6.51" height="7.437"/>
	</g>
</g>
<g>
	<defs>
		<path id="SVGID_135_" d="M128.612,45.113c-0.123,0-0.224,0.031-0.301,0.095c-0.078,0.062-0.116,0.149-0.116,0.261
			s0.028,0.198,0.087,0.261c0.057,0.062,0.131,0.111,0.226,0.145c0.092,0.034,0.195,0.064,0.306,0.09
			c0.112,0.026,0.223,0.059,0.334,0.097c0.112,0.038,0.214,0.085,0.307,0.141c0.096,0.056,0.17,0.137,0.227,0.243
			s0.085,0.237,0.085,0.39c0,0.251-0.099,0.468-0.299,0.648c-0.202,0.182-0.468,0.271-0.8,0.271c-0.331,0-0.6-0.078-0.805-0.234
			s-0.308-0.376-0.308-0.66h0.658c0.024,0.269,0.178,0.403,0.461,0.403c0.14,0,0.252-0.036,0.335-0.109
			c0.08-0.073,0.121-0.171,0.121-0.292s-0.054-0.217-0.16-0.287c-0.109-0.07-0.24-0.122-0.395-0.158
			c-0.153-0.035-0.307-0.077-0.463-0.127c-0.155-0.05-0.286-0.137-0.395-0.261c-0.107-0.125-0.163-0.29-0.163-0.494
			c0-0.277,0.103-0.5,0.304-0.667c0.201-0.166,0.462-0.249,0.777-0.249c0.318,0,0.573,0.071,0.767,0.217
			c0.193,0.144,0.299,0.364,0.316,0.659h-0.677c-0.011-0.116-0.056-0.209-0.132-0.278C128.835,45.148,128.736,45.113,128.612,45.113
			"/>
	</defs>
	<clipPath id="SVGID_136_">
		<use xlink:href="#SVGID_135_"  overflow="visible"/>
	</clipPath>
	<g clip-path="url(#SVGID_136_)">
		<defs>
			<rect id="SVGID_137_" x="-64.36" y="-3.275" width="619.124" height="1261.465"/>
		</defs>
		<clipPath id="SVGID_138_">
			<use xlink:href="#SVGID_137_"  overflow="visible"/>
		</clipPath>
		<rect x="125.405" y="42.468" clip-path="url(#SVGID_138_)" fill="#666666" width="6.512" height="7.437"/>
	</g>
</g>
<g>
	<defs>
		<path id="SVGID_139_" d="M131.798,47.754c-0.442,0-0.813-0.147-1.113-0.442c-0.303-0.295-0.453-0.672-0.453-1.126
			c0-0.455,0.152-0.83,0.454-1.125c0.303-0.295,0.674-0.443,1.114-0.443s0.812,0.148,1.112,0.443
			c0.302,0.295,0.452,0.67,0.452,1.125c0,0.454-0.15,0.831-0.452,1.126C132.611,47.606,132.24,47.754,131.798,47.754
			 M132.473,46.914c0.172-0.183,0.259-0.427,0.259-0.73s-0.087-0.548-0.259-0.729c-0.173-0.181-0.399-0.271-0.676-0.271
			c-0.278,0-0.504,0.092-0.679,0.274c-0.173,0.183-0.261,0.425-0.261,0.728s0.088,0.546,0.261,0.729
			c0.175,0.183,0.4,0.274,0.679,0.274C132.074,47.188,132.301,47.097,132.473,46.914"/>
	</defs>
	<clipPath id="SVGID_140_">
		<use xlink:href="#SVGID_139_"  overflow="visible"/>
	</clipPath>
	<g clip-path="url(#SVGID_140_)">
		<defs>
			<rect id="SVGID_141_" x="-64.36" y="-3.275" width="619.124" height="1261.465"/>
		</defs>
		<clipPath id="SVGID_142_">
			<use xlink:href="#SVGID_141_"  overflow="visible"/>
		</clipPath>
		<rect x="128.082" y="42.467" clip-path="url(#SVGID_142_)" fill="#666666" width="7.433" height="7.438"/>
	</g>
</g>
<g>
	<defs>
		<path id="SVGID_143_" d="M134.176,47.307c-0.302-0.295-0.452-0.669-0.452-1.123c0-0.453,0.151-0.827,0.454-1.123
			c0.304-0.295,0.673-0.442,1.112-0.442c0.333,0,0.63,0.084,0.889,0.254c0.26,0.169,0.442,0.407,0.555,0.715h-0.741
			c-0.138-0.269-0.373-0.403-0.702-0.403c-0.278,0-0.503,0.092-0.679,0.273c-0.173,0.184-0.261,0.426-0.261,0.729
			s0.088,0.546,0.261,0.729c0.176,0.183,0.4,0.274,0.679,0.274c0.328,0,0.561-0.135,0.702-0.404h0.741
			c-0.112,0.308-0.295,0.545-0.555,0.713c-0.259,0.168-0.556,0.253-0.889,0.253C134.847,47.75,134.476,47.602,134.176,47.307"/>
	</defs>
	<clipPath id="SVGID_144_">
		<use xlink:href="#SVGID_143_"  overflow="visible"/>
	</clipPath>
	<g clip-path="url(#SVGID_144_)">
		<defs>
			<rect id="SVGID_145_" x="-64.36" y="-3.275" width="619.124" height="1261.465"/>
		</defs>
		<clipPath id="SVGID_146_">
			<use xlink:href="#SVGID_145_"  overflow="visible"/>
		</clipPath>
		<rect x="131.573" y="42.468" clip-path="url(#SVGID_146_)" fill="#666666" width="7.311" height="7.432"/>
	</g>
</g>
<g>
	<defs>
		<rect id="SVGID_147_" x="81.199" y="25.5" width="72.054" height="25.485"/>
	</defs>
	<clipPath id="SVGID_148_">
		<use xlink:href="#SVGID_147_"  overflow="visible"/>
	</clipPath>
	<g clip-path="url(#SVGID_148_)">
		<defs>
			<rect id="SVGID_149_" x="-64.36" y="-3.275" width="619.124" height="1261.465"/>
		</defs>
		<clipPath id="SVGID_150_">
			<use xlink:href="#SVGID_149_"  overflow="visible"/>
		</clipPath>
		<g clip-path="url(#SVGID_150_)" enable-background="new    ">
			<g>
				<defs>
					<rect id="SVGID_151_" x="80.963" y="39.926" width="72.659" height="11.179"/>
				</defs>
				<clipPath id="SVGID_152_">
					<use xlink:href="#SVGID_151_"  overflow="visible"/>
				</clipPath>
				<g clip-path="url(#SVGID_152_)">
					<defs>
						<rect id="SVGID_153_" x="137.311" y="44.661" width="0.62" height="3.062"/>
					</defs>
					<clipPath id="SVGID_154_">
						<use xlink:href="#SVGID_153_"  overflow="visible"/>
					</clipPath>
					<g clip-path="url(#SVGID_154_)">
						<defs>
							<rect id="SVGID_155_" x="80.963" y="25.308" width="72.659" height="25.796"/>
						</defs>
						<clipPath id="SVGID_156_">
							<use xlink:href="#SVGID_155_"  overflow="visible"/>
						</clipPath>
						<rect x="135.162" y="42.511" clip-path="url(#SVGID_156_)" fill="#666666" width="4.918" height="7.362"/>
					</g>
				</g>
				<g clip-path="url(#SVGID_152_)">
					<defs>
						<path id="SVGID_157_" d="M140.641,47.724l-0.197-0.575h-1.193l-0.196,0.575h-0.655l1.085-3.071h0.732l1.079,3.071H140.641z
							 M139.413,46.675h0.872l-0.437-1.277L139.413,46.675z"/>
					</defs>
					<clipPath id="SVGID_158_">
						<use xlink:href="#SVGID_157_"  overflow="visible"/>
					</clipPath>
					<g clip-path="url(#SVGID_158_)">
						<defs>
							<rect id="SVGID_159_" x="80.963" y="25.308" width="72.659" height="25.796"/>
						</defs>
						<clipPath id="SVGID_160_">
							<use xlink:href="#SVGID_159_"  overflow="visible"/>
						</clipPath>
						<rect x="136.252" y="42.503" clip-path="url(#SVGID_160_)" fill="#666666" width="7.194" height="7.37"/>
					</g>
				</g>
				<g clip-path="url(#SVGID_152_)">
					<defs>
						<polygon id="SVGID_161_" points="141.589,45.135 141.589,44.661 143.858,44.661 143.858,45.135 143.028,45.135 
							143.028,47.724 142.415,47.724 142.415,45.135 						"/>
					</defs>
					<clipPath id="SVGID_162_">
						<use xlink:href="#SVGID_161_"  overflow="visible"/>
					</clipPath>
					<g clip-path="url(#SVGID_162_)">
						<defs>
							<rect id="SVGID_163_" x="80.963" y="25.308" width="72.659" height="25.796"/>
						</defs>
						<clipPath id="SVGID_164_">
							<use xlink:href="#SVGID_163_"  overflow="visible"/>
						</clipPath>
						<rect x="139.439" y="42.511" clip-path="url(#SVGID_164_)" fill="#666666" width="6.569" height="7.362"/>
					</g>
				</g>
				<g clip-path="url(#SVGID_152_)">
					<defs>
						<rect id="SVGID_165_" x="144.375" y="44.661" width="0.62" height="3.062"/>
					</defs>
					<clipPath id="SVGID_166_">
						<use xlink:href="#SVGID_165_"  overflow="visible"/>
					</clipPath>
					<g clip-path="url(#SVGID_166_)">
						<defs>
							<rect id="SVGID_167_" x="80.963" y="25.308" width="72.659" height="25.796"/>
						</defs>
						<clipPath id="SVGID_168_">
							<use xlink:href="#SVGID_167_"  overflow="visible"/>
						</clipPath>
						<rect x="142.226" y="42.511" clip-path="url(#SVGID_168_)" fill="#666666" width="4.918" height="7.362"/>
					</g>
				</g>
				<g clip-path="url(#SVGID_152_)">
					<defs>
						<path id="SVGID_169_" d="M147.091,47.754c-0.441,0-0.812-0.147-1.115-0.442c-0.299-0.295-0.45-0.672-0.45-1.126
							c0-0.455,0.151-0.83,0.454-1.125c0.302-0.295,0.675-0.443,1.113-0.443c0.44,0,0.812,0.148,1.112,0.443s0.452,0.67,0.452,1.125
							c0,0.454-0.151,0.831-0.452,1.126S147.533,47.754,147.091,47.754 M147.766,46.914c0.173-0.183,0.259-0.427,0.259-0.73
							s-0.086-0.548-0.259-0.729s-0.397-0.271-0.676-0.271c-0.277,0-0.504,0.092-0.678,0.274c-0.173,0.183-0.262,0.425-0.262,0.728
							s0.089,0.546,0.262,0.729c0.174,0.183,0.4,0.274,0.678,0.274C147.369,47.188,147.594,47.097,147.766,46.914"/>
					</defs>
					<clipPath id="SVGID_170_">
						<use xlink:href="#SVGID_169_"  overflow="visible"/>
					</clipPath>
					<g clip-path="url(#SVGID_170_)">
						<defs>
							<rect id="SVGID_171_" x="80.963" y="25.308" width="72.659" height="25.796"/>
						</defs>
						<clipPath id="SVGID_172_">
							<use xlink:href="#SVGID_171_"  overflow="visible"/>
						</clipPath>
						<rect x="143.375" y="42.467" clip-path="url(#SVGID_172_)" fill="#666666" width="7.431" height="7.438"/>
					</g>
				</g>
				<g clip-path="url(#SVGID_152_)">
					<defs>
						<polygon id="SVGID_173_" points="151.192,44.652 151.812,44.652 151.812,47.724 151.192,47.724 149.805,45.601 
							149.805,47.724 149.189,47.724 149.189,44.652 149.805,44.652 151.192,46.775 						"/>
					</defs>
					<clipPath id="SVGID_174_">
						<use xlink:href="#SVGID_173_"  overflow="visible"/>
					</clipPath>
					<g clip-path="url(#SVGID_174_)">
						<defs>
							<rect id="SVGID_175_" x="80.963" y="25.308" width="72.659" height="25.796"/>
						</defs>
						<clipPath id="SVGID_176_">
							<use xlink:href="#SVGID_175_"  overflow="visible"/>
						</clipPath>
						<rect x="147.038" y="42.503" clip-path="url(#SVGID_176_)" fill="#666666" width="6.923" height="7.37"/>
					</g>
				</g>
				<g clip-path="url(#SVGID_152_)">
					<defs>
						<path id="SVGID_177_" d="M82.176,50.985c-0.274,0-0.507-0.092-0.694-0.278c-0.188-0.185-0.282-0.419-0.282-0.702
							s0.094-0.517,0.282-0.699c0.188-0.184,0.42-0.275,0.694-0.275s0.506,0.092,0.693,0.275c0.187,0.183,0.28,0.417,0.28,0.701
							c0,0.283-0.094,0.518-0.28,0.702C82.681,50.894,82.45,50.985,82.176,50.985 M82.69,50.554c0.135-0.138,0.201-0.32,0.201-0.547
							c0-0.228-0.066-0.409-0.201-0.547s-0.307-0.206-0.516-0.206s-0.383,0.068-0.518,0.206s-0.203,0.319-0.203,0.547
							c0,0.227,0.068,0.409,0.205,0.547c0.137,0.139,0.309,0.208,0.517,0.208S82.555,50.692,82.69,50.554"/>
					</defs>
					<clipPath id="SVGID_178_">
						<use xlink:href="#SVGID_177_"  overflow="visible"/>
					</clipPath>
					<g clip-path="url(#SVGID_178_)">
						<defs>
							<rect id="SVGID_179_" x="80.963" y="25.308" width="72.659" height="25.796"/>
						</defs>
						<clipPath id="SVGID_180_">
							<use xlink:href="#SVGID_179_"  overflow="visible"/>
						</clipPath>
						<rect x="79.05" y="46.88" clip-path="url(#SVGID_180_)" fill="#666666" width="6.248" height="6.255"/>
					</g>
				</g>
				<g clip-path="url(#SVGID_152_)">
					<defs>
						<polygon id="SVGID_181_" points="84.74,50.967 84.74,49.049 85.819,49.049 85.819,49.252 84.991,49.252 84.991,49.9 
							85.643,49.9 85.643,50.101 84.991,50.101 84.991,50.967 						"/>
					</defs>
					<clipPath id="SVGID_182_">
						<use xlink:href="#SVGID_181_"  overflow="visible"/>
					</clipPath>
					<g clip-path="url(#SVGID_182_)">
						<defs>
							<rect id="SVGID_183_" x="80.963" y="25.308" width="72.659" height="25.796"/>
						</defs>
						<clipPath id="SVGID_184_">
							<use xlink:href="#SVGID_183_"  overflow="visible"/>
						</clipPath>
						<rect x="82.591" y="46.899" clip-path="url(#SVGID_184_)" fill="#666666" width="5.377" height="6.216"/>
					</g>
				</g>
				<g clip-path="url(#SVGID_152_)">
					<defs>
						<path id="SVGID_185_" d="M89.684,49.562c0,0.069,0.021,0.128,0.059,0.174c0.039,0.046,0.088,0.08,0.15,0.103
							c0.061,0.022,0.127,0.041,0.201,0.059c0.076,0.016,0.15,0.035,0.225,0.056c0.074,0.021,0.143,0.049,0.204,0.081
							c0.061,0.034,0.11,0.084,0.148,0.149c0.039,0.066,0.058,0.149,0.058,0.246c0,0.15-0.057,0.28-0.172,0.392
							c-0.113,0.109-0.268,0.165-0.463,0.165c-0.193,0-0.352-0.044-0.474-0.134s-0.183-0.211-0.183-0.364h0.269
							c0.007,0.087,0.042,0.156,0.104,0.21s0.153,0.08,0.276,0.08c0.121,0,0.217-0.03,0.29-0.094
							c0.071-0.062,0.106-0.136,0.106-0.22s-0.019-0.148-0.058-0.193c-0.038-0.045-0.088-0.079-0.149-0.101
							c-0.061-0.023-0.127-0.041-0.203-0.057c-0.074-0.016-0.148-0.035-0.223-0.058c-0.076-0.022-0.144-0.05-0.204-0.084
							s-0.11-0.085-0.15-0.152c-0.038-0.066-0.058-0.15-0.058-0.25c0-0.162,0.058-0.292,0.174-0.391
							c0.115-0.099,0.265-0.148,0.45-0.148c0.185,0,0.333,0.042,0.442,0.129c0.11,0.085,0.174,0.204,0.189,0.355h-0.279
							c-0.008-0.076-0.043-0.141-0.106-0.193c-0.063-0.055-0.149-0.081-0.257-0.081c-0.108,0-0.196,0.027-0.265,0.082
							C89.719,49.376,89.684,49.456,89.684,49.562"/>
					</defs>
					<clipPath id="SVGID_186_">
						<use xlink:href="#SVGID_185_"  overflow="visible"/>
					</clipPath>
					<g clip-path="url(#SVGID_186_)">
						<defs>
							<rect id="SVGID_187_" x="80.963" y="25.308" width="72.659" height="25.796"/>
						</defs>
						<clipPath id="SVGID_188_">
							<use xlink:href="#SVGID_187_"  overflow="visible"/>
						</clipPath>
						<rect x="87.289" y="46.88" clip-path="url(#SVGID_188_)" fill="#666666" width="5.59" height="6.255"/>
					</g>
				</g>
				<g clip-path="url(#SVGID_152_)">
					<defs>
						<path id="SVGID_189_" d="M92.563,50.706c-0.188-0.185-0.281-0.418-0.281-0.701s0.094-0.517,0.281-0.699
							c0.189-0.184,0.419-0.275,0.694-0.275c0.2,0,0.378,0.047,0.533,0.141s0.271,0.229,0.344,0.406h-0.304
							c-0.114-0.216-0.306-0.323-0.573-0.323c-0.209,0-0.38,0.068-0.515,0.206c-0.137,0.138-0.204,0.319-0.204,0.547
							c0,0.227,0.067,0.409,0.204,0.547c0.135,0.139,0.306,0.208,0.515,0.208c0.128,0,0.241-0.029,0.342-0.084
							c0.098-0.058,0.176-0.139,0.231-0.243h0.304c-0.073,0.178-0.188,0.312-0.344,0.407c-0.155,0.094-0.333,0.141-0.533,0.141
							C92.982,50.982,92.753,50.89,92.563,50.706"/>
					</defs>
					<clipPath id="SVGID_190_">
						<use xlink:href="#SVGID_189_"  overflow="visible"/>
					</clipPath>
					<g clip-path="url(#SVGID_190_)">
						<defs>
							<rect id="SVGID_191_" x="80.963" y="25.308" width="72.659" height="25.796"/>
						</defs>
						<clipPath id="SVGID_192_">
							<use xlink:href="#SVGID_191_"  overflow="visible"/>
						</clipPath>
						<rect x="90.132" y="46.88" clip-path="url(#SVGID_192_)" fill="#666666" width="6.152" height="6.253"/>
					</g>
				</g>
				<g clip-path="url(#SVGID_152_)">
					<defs>
						<polygon id="SVGID_193_" points="97.025,49.049 97.279,49.049 97.279,50.967 97.025,50.967 97.025,50.101 96.059,50.101 
							96.059,50.967 95.807,50.967 95.807,49.049 96.059,49.049 96.059,49.9 97.025,49.9 						"/>
					</defs>
					<clipPath id="SVGID_194_">
						<use xlink:href="#SVGID_193_"  overflow="visible"/>
					</clipPath>
					<g clip-path="url(#SVGID_194_)">
						<defs>
							<rect id="SVGID_195_" x="80.963" y="25.308" width="72.659" height="25.796"/>
						</defs>
						<clipPath id="SVGID_196_">
							<use xlink:href="#SVGID_195_"  overflow="visible"/>
						</clipPath>
						<rect x="93.659" y="46.899" clip-path="url(#SVGID_196_)" fill="#666666" width="5.77" height="6.216"/>
					</g>
				</g>
				<g clip-path="url(#SVGID_152_)">
					<defs>
						<path id="SVGID_197_" d="M99.848,50.985c-0.274,0-0.506-0.092-0.694-0.278c-0.188-0.185-0.281-0.419-0.281-0.702
							s0.094-0.517,0.281-0.699c0.188-0.184,0.42-0.275,0.694-0.275s0.506,0.092,0.692,0.275c0.187,0.183,0.282,0.417,0.282,0.701
							c0,0.283-0.096,0.518-0.282,0.702S100.123,50.985,99.848,50.985 M100.363,50.554c0.135-0.138,0.202-0.32,0.202-0.547
							c0-0.228-0.067-0.409-0.202-0.547s-0.306-0.206-0.517-0.206c-0.209,0-0.381,0.068-0.516,0.206
							c-0.137,0.138-0.204,0.319-0.204,0.547c0,0.227,0.069,0.409,0.204,0.547c0.138,0.139,0.309,0.208,0.518,0.208
							S100.228,50.692,100.363,50.554"/>
					</defs>
					<clipPath id="SVGID_198_">
						<use xlink:href="#SVGID_197_"  overflow="visible"/>
					</clipPath>
					<g clip-path="url(#SVGID_198_)">
						<defs>
							<rect id="SVGID_199_" x="80.963" y="25.308" width="72.659" height="25.796"/>
						</defs>
						<clipPath id="SVGID_200_">
							<use xlink:href="#SVGID_199_"  overflow="visible"/>
						</clipPath>
						<rect x="96.723" y="46.88" clip-path="url(#SVGID_200_)" fill="#666666" width="6.249" height="6.255"/>
					</g>
				</g>
				<g clip-path="url(#SVGID_152_)">
					<defs>
						<path id="SVGID_201_" d="M103.29,50.985c-0.274,0-0.506-0.092-0.695-0.278c-0.188-0.185-0.281-0.419-0.281-0.702
							s0.093-0.517,0.281-0.699c0.189-0.184,0.421-0.275,0.695-0.275c0.275,0,0.505,0.092,0.693,0.275
							c0.187,0.183,0.279,0.417,0.279,0.701c0,0.283-0.093,0.518-0.279,0.702C103.795,50.894,103.565,50.985,103.29,50.985
							 M103.803,50.554c0.136-0.138,0.202-0.32,0.202-0.547c0-0.228-0.066-0.409-0.202-0.547c-0.135-0.138-0.306-0.206-0.515-0.206
							c-0.211,0-0.382,0.068-0.519,0.206c-0.135,0.138-0.202,0.319-0.202,0.547c0,0.227,0.067,0.409,0.204,0.547
							c0.137,0.139,0.309,0.208,0.518,0.208C103.498,50.762,103.669,50.692,103.803,50.554"/>
					</defs>
					<clipPath id="SVGID_202_">
						<use xlink:href="#SVGID_201_"  overflow="visible"/>
					</clipPath>
					<g clip-path="url(#SVGID_202_)">
						<defs>
							<rect id="SVGID_203_" x="80.963" y="25.308" width="72.659" height="25.796"/>
						</defs>
						<clipPath id="SVGID_204_">
							<use xlink:href="#SVGID_203_"  overflow="visible"/>
						</clipPath>
						<rect x="100.163" y="46.88" clip-path="url(#SVGID_204_)" fill="#666666" width="6.25" height="6.255"/>
					</g>
				</g>
				<g clip-path="url(#SVGID_152_)">
					<defs>
						<polygon id="SVGID_205_" points="105.853,49.049 106.105,49.049 106.105,50.772 106.777,50.772 106.777,50.967 
							105.853,50.967 						"/>
					</defs>
					<clipPath id="SVGID_206_">
						<use xlink:href="#SVGID_205_"  overflow="visible"/>
					</clipPath>
					<g clip-path="url(#SVGID_206_)">
						<defs>
							<rect id="SVGID_207_" x="80.963" y="25.308" width="72.659" height="25.796"/>
						</defs>
						<clipPath id="SVGID_208_">
							<use xlink:href="#SVGID_207_"  overflow="visible"/>
						</clipPath>
						<rect x="103.703" y="46.899" clip-path="url(#SVGID_208_)" fill="#666666" width="5.224" height="6.216"/>
					</g>
				</g>
				<g clip-path="url(#SVGID_152_)">
					<defs>
						<path id="SVGID_209_" d="M110.63,49.562c0,0.069,0.019,0.128,0.059,0.174c0.038,0.046,0.088,0.08,0.148,0.103
							s0.13,0.041,0.204,0.059c0.074,0.016,0.148,0.035,0.223,0.056c0.076,0.021,0.144,0.049,0.204,0.081
							c0.062,0.034,0.11,0.084,0.148,0.149c0.039,0.066,0.059,0.149,0.059,0.246c0,0.15-0.058,0.28-0.171,0.392
							c-0.114,0.109-0.27,0.165-0.463,0.165c-0.195,0-0.353-0.044-0.476-0.134c-0.12-0.09-0.183-0.211-0.183-0.364h0.27
							c0.007,0.087,0.041,0.156,0.104,0.21s0.153,0.08,0.274,0.08c0.123,0,0.22-0.03,0.29-0.094c0.073-0.062,0.107-0.136,0.107-0.22
							s-0.02-0.148-0.058-0.193c-0.037-0.045-0.088-0.079-0.148-0.101c-0.061-0.023-0.127-0.041-0.203-0.057
							c-0.074-0.016-0.15-0.035-0.225-0.058s-0.142-0.05-0.204-0.084c-0.061-0.034-0.11-0.085-0.148-0.152
							c-0.04-0.066-0.059-0.15-0.059-0.25c0-0.162,0.059-0.292,0.175-0.391c0.113-0.099,0.264-0.148,0.45-0.148
							c0.185,0,0.332,0.042,0.442,0.129c0.108,0.085,0.173,0.204,0.189,0.355h-0.279c-0.007-0.076-0.043-0.141-0.107-0.193
							c-0.063-0.055-0.15-0.081-0.257-0.081c-0.109,0-0.197,0.027-0.265,0.082C110.664,49.376,110.63,49.456,110.63,49.562"/>
					</defs>
					<clipPath id="SVGID_210_">
						<use xlink:href="#SVGID_209_"  overflow="visible"/>
					</clipPath>
					<g clip-path="url(#SVGID_210_)">
						<defs>
							<rect id="SVGID_211_" x="80.963" y="25.308" width="72.659" height="25.796"/>
						</defs>
						<clipPath id="SVGID_212_">
							<use xlink:href="#SVGID_211_"  overflow="visible"/>
						</clipPath>
						<rect x="108.234" y="46.88" clip-path="url(#SVGID_212_)" fill="#666666" width="5.592" height="6.255"/>
					</g>
				</g>
				<g clip-path="url(#SVGID_152_)">
					<defs>
						<path id="SVGID_213_" d="M113.323,50.294v-1.245h0.256v1.245c0,0.158,0.04,0.276,0.125,0.355
							c0.084,0.078,0.2,0.117,0.347,0.117c0.148,0,0.265-0.039,0.349-0.117c0.085-0.079,0.128-0.197,0.128-0.355v-1.245h0.252v1.245
							c0,0.226-0.069,0.396-0.207,0.515s-0.312,0.177-0.521,0.177c-0.213,0-0.387-0.059-0.523-0.177S113.323,50.52,113.323,50.294"
							/>
					</defs>
					<clipPath id="SVGID_214_">
						<use xlink:href="#SVGID_213_"  overflow="visible"/>
					</clipPath>
					<g clip-path="url(#SVGID_214_)">
						<defs>
							<rect id="SVGID_215_" x="80.963" y="25.308" width="72.659" height="25.796"/>
						</defs>
						<clipPath id="SVGID_216_">
							<use xlink:href="#SVGID_215_"  overflow="visible"/>
						</clipPath>
						<rect x="111.174" y="46.899" clip-path="url(#SVGID_216_)" fill="#666666" width="5.754" height="6.235"/>
					</g>
				</g>
				<g clip-path="url(#SVGID_152_)">
					<defs>
						<path id="SVGID_217_" d="M117.582,49.207c0.112,0.104,0.169,0.24,0.169,0.404c0,0.163-0.053,0.299-0.164,0.404
							c-0.11,0.105-0.275,0.16-0.499,0.16h-0.371v0.791h-0.252v-1.918h0.623C117.303,49.049,117.468,49.102,117.582,49.207z
							 M116.717,49.976h0.371c0.139,0,0.24-0.031,0.308-0.095s0.102-0.152,0.102-0.268c0-0.241-0.136-0.361-0.409-0.361h-0.371
							V49.976z"/>
					</defs>
					<clipPath id="SVGID_218_">
						<use xlink:href="#SVGID_217_"  overflow="visible"/>
					</clipPath>
					<g clip-path="url(#SVGID_218_)">
						<defs>
							<rect id="SVGID_219_" x="80.963" y="25.308" width="72.659" height="25.796"/>
						</defs>
						<clipPath id="SVGID_220_">
							<use xlink:href="#SVGID_219_"  overflow="visible"/>
						</clipPath>
						<rect x="114.316" y="46.899" clip-path="url(#SVGID_220_)" fill="#666666" width="5.585" height="6.216"/>
					</g>
				</g>
				<g clip-path="url(#SVGID_152_)">
					<defs>
						<polygon id="SVGID_221_" points="120.357,49.049 120.357,49.249 119.594,49.249 119.594,49.9 120.272,49.9 120.272,50.098 
							119.594,50.098 119.594,50.767 120.357,50.767 120.357,50.967 119.342,50.967 119.342,49.049 						"/>
					</defs>
					<clipPath id="SVGID_222_">
						<use xlink:href="#SVGID_221_"  overflow="visible"/>
					</clipPath>
					<g clip-path="url(#SVGID_222_)">
						<defs>
							<rect id="SVGID_223_" x="80.963" y="25.308" width="72.659" height="25.796"/>
						</defs>
						<clipPath id="SVGID_224_">
							<use xlink:href="#SVGID_223_"  overflow="visible"/>
						</clipPath>
						<rect x="117.192" y="46.899" clip-path="url(#SVGID_224_)" fill="#666666" width="5.314" height="6.216"/>
					</g>
				</g>
				<g clip-path="url(#SVGID_152_)">
					<defs>
						<path id="SVGID_225_" d="M122.267,50.176v0.791h-0.251v-1.918h0.622c0.216,0,0.38,0.053,0.494,0.158
							c0.112,0.104,0.169,0.234,0.169,0.385c0,0.153-0.042,0.279-0.123,0.381c-0.084,0.103-0.209,0.165-0.374,0.191l0.528,0.803
							h-0.316l-0.502-0.791H122.267z M122.267,49.252v0.724h0.371c0.14,0,0.241-0.031,0.308-0.095
							c0.067-0.063,0.102-0.152,0.102-0.268c0-0.241-0.137-0.361-0.409-0.361H122.267z"/>
					</defs>
					<clipPath id="SVGID_226_">
						<use xlink:href="#SVGID_225_"  overflow="visible"/>
					</clipPath>
					<g clip-path="url(#SVGID_226_)">
						<defs>
							<rect id="SVGID_227_" x="80.963" y="25.308" width="72.659" height="25.796"/>
						</defs>
						<clipPath id="SVGID_228_">
							<use xlink:href="#SVGID_227_"  overflow="visible"/>
						</clipPath>
						<rect x="119.867" y="46.899" clip-path="url(#SVGID_228_)" fill="#666666" width="5.615" height="6.216"/>
					</g>
				</g>
				<g clip-path="url(#SVGID_152_)">
					<defs>
						<rect id="SVGID_229_" x="125.001" y="49.049" width="0.252" height="1.918"/>
					</defs>
					<clipPath id="SVGID_230_">
						<use xlink:href="#SVGID_229_"  overflow="visible"/>
					</clipPath>
					<g clip-path="url(#SVGID_230_)">
						<defs>
							<rect id="SVGID_231_" x="80.963" y="25.308" width="72.659" height="25.796"/>
						</defs>
						<clipPath id="SVGID_232_">
							<use xlink:href="#SVGID_231_"  overflow="visible"/>
						</clipPath>
						<rect x="122.85" y="46.899" clip-path="url(#SVGID_232_)" fill="#666666" width="4.553" height="6.216"/>
					</g>
				</g>
				<g clip-path="url(#SVGID_152_)">
					<defs>
						<polygon id="SVGID_233_" points="128.21,49.049 128.46,49.049 128.46,50.967 128.21,50.967 127.196,49.444 127.196,50.967 
							126.945,50.967 126.945,49.049 127.196,49.049 128.21,50.57 						"/>
					</defs>
					<clipPath id="SVGID_234_">
						<use xlink:href="#SVGID_233_"  overflow="visible"/>
					</clipPath>
					<g clip-path="url(#SVGID_234_)">
						<defs>
							<rect id="SVGID_235_" x="80.963" y="25.308" width="72.659" height="25.796"/>
						</defs>
						<clipPath id="SVGID_236_">
							<use xlink:href="#SVGID_235_"  overflow="visible"/>
						</clipPath>
						<rect x="124.796" y="46.899" clip-path="url(#SVGID_236_)" fill="#666666" width="5.814" height="6.216"/>
					</g>
				</g>
				<g clip-path="url(#SVGID_152_)">
					<defs>
						<polygon id="SVGID_237_" points="130.067,49.252 130.067,49.049 131.332,49.049 131.332,49.252 130.825,49.252 
							130.825,50.967 130.573,50.967 130.573,49.252 						"/>
					</defs>
					<clipPath id="SVGID_238_">
						<use xlink:href="#SVGID_237_"  overflow="visible"/>
					</clipPath>
					<g clip-path="url(#SVGID_238_)">
						<defs>
							<rect id="SVGID_239_" x="80.963" y="25.308" width="72.659" height="25.796"/>
						</defs>
						<clipPath id="SVGID_240_">
							<use xlink:href="#SVGID_239_"  overflow="visible"/>
						</clipPath>
						<rect x="127.918" y="46.899" clip-path="url(#SVGID_240_)" fill="#666666" width="5.562" height="6.216"/>
					</g>
				</g>
				<g clip-path="url(#SVGID_152_)">
					<defs>
						<polygon id="SVGID_241_" points="133.956,49.049 133.956,49.249 133.193,49.249 133.193,49.9 133.874,49.9 133.874,50.098 
							133.193,50.098 133.193,50.767 133.956,50.767 133.956,50.967 132.941,50.967 132.941,49.049 						"/>
					</defs>
					<clipPath id="SVGID_242_">
						<use xlink:href="#SVGID_241_"  overflow="visible"/>
					</clipPath>
					<g clip-path="url(#SVGID_242_)">
						<defs>
							<rect id="SVGID_243_" x="80.963" y="25.308" width="72.659" height="25.796"/>
						</defs>
						<clipPath id="SVGID_244_">
							<use xlink:href="#SVGID_243_"  overflow="visible"/>
						</clipPath>
						<rect x="130.791" y="46.899" clip-path="url(#SVGID_244_)" fill="#666666" width="5.315" height="6.216"/>
					</g>
				</g>
				<g clip-path="url(#SVGID_152_)">
					<defs>
						<polygon id="SVGID_245_" points="136.88,49.049 137.131,49.049 137.131,50.967 136.88,50.967 135.868,49.444 135.868,50.967 
							135.616,50.967 135.616,49.049 135.868,49.049 136.88,50.57 						"/>
					</defs>
					<clipPath id="SVGID_246_">
						<use xlink:href="#SVGID_245_"  overflow="visible"/>
					</clipPath>
					<g clip-path="url(#SVGID_246_)">
						<defs>
							<rect id="SVGID_247_" x="80.963" y="25.308" width="72.659" height="25.796"/>
						</defs>
						<clipPath id="SVGID_248_">
							<use xlink:href="#SVGID_247_"  overflow="visible"/>
						</clipPath>
						<rect x="133.466" y="46.899" clip-path="url(#SVGID_248_)" fill="#666666" width="5.816" height="6.216"/>
					</g>
				</g>
				<g clip-path="url(#SVGID_152_)">
					<defs>
						<path id="SVGID_249_" d="M139.43,49.049c0.31,0,0.553,0.088,0.732,0.26c0.178,0.174,0.268,0.41,0.268,0.709
							c0,0.298-0.09,0.531-0.268,0.699c-0.18,0.166-0.423,0.25-0.732,0.25h-0.606v-1.918H139.43z M139.075,50.772h0.355
							c0.24,0,0.425-0.066,0.553-0.198c0.126-0.133,0.189-0.319,0.189-0.557c0-0.238-0.063-0.424-0.189-0.556
							c-0.128-0.133-0.312-0.199-0.553-0.199h-0.355V50.772z"/>
					</defs>
					<clipPath id="SVGID_250_">
						<use xlink:href="#SVGID_249_"  overflow="visible"/>
					</clipPath>
					<g clip-path="url(#SVGID_250_)">
						<defs>
							<rect id="SVGID_251_" x="80.963" y="25.308" width="72.659" height="25.796"/>
						</defs>
						<clipPath id="SVGID_252_">
							<use xlink:href="#SVGID_251_"  overflow="visible"/>
						</clipPath>
						<rect x="136.675" y="46.899" clip-path="url(#SVGID_252_)" fill="#666666" width="5.906" height="6.216"/>
					</g>
				</g>
				<g clip-path="url(#SVGID_152_)">
					<defs>
						<polygon id="SVGID_253_" points="143.042,49.049 143.042,49.249 142.278,49.249 142.278,49.9 142.959,49.9 142.959,50.098 
							142.278,50.098 142.278,50.767 143.042,50.767 143.042,50.967 142.026,50.967 142.026,49.049 						"/>
					</defs>
					<clipPath id="SVGID_254_">
						<use xlink:href="#SVGID_253_"  overflow="visible"/>
					</clipPath>
					<g clip-path="url(#SVGID_254_)">
						<defs>
							<rect id="SVGID_255_" x="80.963" y="25.308" width="72.659" height="25.796"/>
						</defs>
						<clipPath id="SVGID_256_">
							<use xlink:href="#SVGID_255_"  overflow="visible"/>
						</clipPath>
						<rect x="139.876" y="46.899" clip-path="url(#SVGID_256_)" fill="#666666" width="5.315" height="6.216"/>
					</g>
				</g>
				<g clip-path="url(#SVGID_152_)">
					<defs>
						<polygon id="SVGID_257_" points="145.966,49.049 146.218,49.049 146.218,50.967 145.966,50.967 144.953,49.444 
							144.953,50.967 144.701,50.967 144.701,49.049 144.953,49.049 145.966,50.57 						"/>
					</defs>
					<clipPath id="SVGID_258_">
						<use xlink:href="#SVGID_257_"  overflow="visible"/>
					</clipPath>
					<g clip-path="url(#SVGID_258_)">
						<defs>
							<rect id="SVGID_259_" x="80.963" y="25.308" width="72.659" height="25.796"/>
						</defs>
						<clipPath id="SVGID_260_">
							<use xlink:href="#SVGID_259_"  overflow="visible"/>
						</clipPath>
						<rect x="142.552" y="46.899" clip-path="url(#SVGID_260_)" fill="#666666" width="5.813" height="6.216"/>
					</g>
				</g>
				<g clip-path="url(#SVGID_152_)">
					<defs>
						<polygon id="SVGID_261_" points="147.823,49.252 147.823,49.049 149.088,49.049 149.088,49.252 148.581,49.252 
							148.581,50.967 148.329,50.967 148.329,49.252 						"/>
					</defs>
					<clipPath id="SVGID_262_">
						<use xlink:href="#SVGID_261_"  overflow="visible"/>
					</clipPath>
					<g clip-path="url(#SVGID_262_)">
						<defs>
							<rect id="SVGID_263_" x="80.963" y="25.308" width="72.659" height="25.796"/>
						</defs>
						<clipPath id="SVGID_264_">
							<use xlink:href="#SVGID_263_"  overflow="visible"/>
						</clipPath>
						<rect x="145.675" y="46.899" clip-path="url(#SVGID_264_)" fill="#666666" width="5.562" height="6.216"/>
					</g>
				</g>
				<g clip-path="url(#SVGID_152_)">
					<defs>
						<path id="SVGID_265_" d="M150.9,49.562c0,0.069,0.021,0.128,0.061,0.174c0.038,0.046,0.087,0.08,0.148,0.103
							c0.061,0.022,0.13,0.041,0.204,0.059c0.074,0.016,0.148,0.035,0.223,0.056c0.076,0.021,0.144,0.049,0.204,0.081
							c0.061,0.034,0.11,0.084,0.148,0.149c0.04,0.066,0.059,0.149,0.059,0.246c0,0.15-0.057,0.28-0.171,0.392
							c-0.116,0.109-0.27,0.165-0.463,0.165c-0.195,0-0.353-0.044-0.475-0.134c-0.121-0.09-0.184-0.211-0.184-0.364h0.27
							c0.007,0.087,0.042,0.156,0.102,0.21c0.062,0.054,0.154,0.08,0.276,0.08c0.123,0,0.218-0.03,0.29-0.094
							c0.073-0.062,0.107-0.136,0.107-0.22s-0.019-0.148-0.057-0.193s-0.088-0.079-0.15-0.101c-0.059-0.023-0.128-0.041-0.202-0.057
							c-0.076-0.016-0.15-0.035-0.225-0.058s-0.142-0.05-0.204-0.084c-0.06-0.034-0.11-0.085-0.149-0.152
							c-0.038-0.066-0.058-0.15-0.058-0.25c0-0.162,0.058-0.292,0.173-0.391c0.116-0.099,0.266-0.148,0.451-0.148
							c0.187,0,0.333,0.042,0.443,0.129c0.108,0.085,0.173,0.204,0.188,0.355h-0.28c-0.007-0.076-0.041-0.141-0.104-0.193
							c-0.064-0.055-0.15-0.081-0.258-0.081c-0.108,0-0.197,0.027-0.264,0.082C150.936,49.376,150.9,49.456,150.9,49.562"/>
					</defs>
					<clipPath id="SVGID_266_">
						<use xlink:href="#SVGID_265_"  overflow="visible"/>
					</clipPath>
					<g clip-path="url(#SVGID_266_)">
						<defs>
							<rect id="SVGID_267_" x="80.963" y="25.308" width="72.659" height="25.796"/>
						</defs>
						<clipPath id="SVGID_268_">
							<use xlink:href="#SVGID_267_"  overflow="visible"/>
						</clipPath>
						<rect x="148.506" y="46.88" clip-path="url(#SVGID_268_)" fill="#666666" width="5.592" height="6.255"/>
					</g>
				</g>
				<g clip-path="url(#SVGID_152_)">
					<defs>
						<rect id="SVGID_269_" x="100.396" y="39.942" width="1.321" height="1.322"/>
					</defs>
					<clipPath id="SVGID_270_">
						<use xlink:href="#SVGID_269_"  overflow="visible"/>
					</clipPath>
					<g clip-path="url(#SVGID_270_)">
						<defs>
							<rect id="SVGID_271_" x="80.963" y="25.308" width="72.659" height="25.796"/>
						</defs>
						<clipPath id="SVGID_272_">
							<use xlink:href="#SVGID_271_"  overflow="visible"/>
						</clipPath>
						<rect x="98.248" y="37.793" clip-path="url(#SVGID_272_)" fill="#2B366C" width="5.619" height="5.621"/>
					</g>
				</g>
				<g clip-path="url(#SVGID_152_)">
					<defs>
						<rect id="SVGID_273_" x="119.861" y="39.942" width="1.321" height="1.322"/>
					</defs>
					<clipPath id="SVGID_274_">
						<use xlink:href="#SVGID_273_"  overflow="visible"/>
					</clipPath>
					<g clip-path="url(#SVGID_274_)">
						<defs>
							<rect id="SVGID_275_" x="80.963" y="25.308" width="72.659" height="25.796"/>
						</defs>
						<clipPath id="SVGID_276_">
							<use xlink:href="#SVGID_275_"  overflow="visible"/>
						</clipPath>
						<rect x="117.712" y="37.793" clip-path="url(#SVGID_276_)" fill="#2B366C" width="5.621" height="5.621"/>
					</g>
				</g>
				<g clip-path="url(#SVGID_152_)">
					<defs>
						<rect id="SVGID_277_" x="135.268" y="39.942" width="1.321" height="1.322"/>
					</defs>
					<clipPath id="SVGID_278_">
						<use xlink:href="#SVGID_277_"  overflow="visible"/>
					</clipPath>
					<g clip-path="url(#SVGID_278_)">
						<defs>
							<rect id="SVGID_279_" x="80.963" y="25.308" width="72.659" height="25.796"/>
						</defs>
						<clipPath id="SVGID_280_">
							<use xlink:href="#SVGID_279_"  overflow="visible"/>
						</clipPath>
						<rect x="133.119" y="37.793" clip-path="url(#SVGID_280_)" fill="#2B366C" width="5.621" height="5.621"/>
					</g>
				</g>
				<g clip-path="url(#SVGID_152_)">
					<defs>
						<rect id="SVGID_281_" x="151.929" y="39.942" width="1.323" height="1.322"/>
					</defs>
					<clipPath id="SVGID_282_">
						<use xlink:href="#SVGID_281_"  overflow="visible"/>
					</clipPath>
					<g clip-path="url(#SVGID_282_)">
						<defs>
							<rect id="SVGID_283_" x="80.963" y="25.308" width="72.659" height="25.796"/>
						</defs>
						<clipPath id="SVGID_284_">
							<use xlink:href="#SVGID_283_"  overflow="visible"/>
						</clipPath>
						<rect x="149.78" y="37.793" clip-path="url(#SVGID_284_)" fill="#2B366C" width="5.621" height="5.621"/>
					</g>
				</g>
			</g>
		</g>
	</g>
</g>
</svg>
