<svg xmlns="http://www.w3.org/2000/svg" xmlns:xlink="http://www.w3.org/1999/xlink" width="500" zoomAndPan="magnify" viewBox="0 0 375 374.999991" height="500" preserveAspectRatio="xMidYMid meet" version="1.0"><defs><clipPath id="1ace94161d"><path d="M 1 100.453125 L 374 100.453125 L 374 284 L 1 284 Z M 1 100.453125 " clip-rule="nonzero"/></clipPath></defs><g clip-path="url(#1ace94161d)"><path fill="#4e0f53" d="M 368.527344 235.429688 C 373.523438 245.597656 373.566406 269.535156 373.566406 269.535156 C 372.980469 269.941406 372.398438 270.253906 371.8125 270.523438 L 368.167969 255.273438 C 368.167969 255.273438 367.132812 265.394531 367.402344 271.289062 C 360.339844 273.628906 356.199219 269.984375 356.199219 269.984375 C 354.265625 251.089844 356.335938 240.46875 358.042969 235.207031 C 356.785156 233.902344 356.019531 232.191406 355.976562 230.257812 C 355.886719 227.105469 357.820312 224.316406 360.5625 223.191406 L 360.113281 188.683594 L 314.175781 209.46875 C 310.710938 211.042969 306.753906 208.613281 306.617188 204.789062 L 306.078125 191.15625 C 305.988281 189.402344 305.089844 187.828125 303.648438 186.882812 C 231.707031 139.460938 172.765625 143.105469 136.050781 154.488281 C 96.050781 166.90625 73.464844 190.4375 72.519531 191.429688 L 72.476562 191.472656 C 71.488281 192.507812 70.992188 193.859375 70.992188 195.253906 L 71.214844 210.503906 C 71.261719 214.375 67.390625 217.027344 63.792969 215.542969 L 4.539062 191.25 C 0.171875 189.449219 0.0820312 183.328125 4.355469 181.394531 L 182.753906 101.082031 C 184.101562 100.496094 185.585938 100.453125 186.9375 100.992188 L 370.371094 174.152344 C 374.78125 175.90625 374.917969 182.070312 370.597656 184.050781 L 364.480469 186.792969 L 364.929688 222.878906 C 368.214844 223.554688 370.6875 226.433594 370.777344 229.898438 C 370.867188 232.054688 369.96875 234.035156 368.527344 235.429688 Z M 80.035156 198.625 C 79.765625 198.851562 79.585938 199.210938 79.585938 199.617188 L 79.585938 282.359375 C 79.585938 283.347656 80.664062 283.976562 81.519531 283.4375 C 94.835938 275.292969 176.8125 230.570312 296.628906 283.84375 C 297.484375 284.203125 298.429688 283.617188 298.429688 282.71875 L 298.429688 196.015625 C 298.429688 195.613281 298.25 195.207031 297.890625 194.984375 C 289.386719 188.953125 179.917969 114.355469 80.035156 198.625 Z M 80.035156 198.625 " fill-opacity="1" fill-rule="nonzero"/></g></svg>